<svg height="500" width="800" xmlns="http://www.w3.org/2000/svg" version="1.1" xmlns:xlink="http://www.w3.org/1999/xlink"><desc>Created with Highcharts 3.0.7</desc><defs><clipPath id="highcharts-6"><rect height="402" width="752" y="0" x="0" fill="none"></rect></clipPath></defs><rect height="500" width="800" y="0" x="0" fill="#FFFFFF" ry="0" rx="0"></rect><path stroke-dasharray="9,3" stroke-width="3" stroke="#FEBBBB" d="M 38 299.5 L 790 299.5" fill="none"></path><path stroke-dasharray="9,3" stroke-width="3" stroke="#9FA2E4" d="M 38 205.5 L 790 205.5" fill="none"></path><g class="highcharts-grid"></g><g class="highcharts-grid"><path opacity="1" stroke-dasharray="none" stroke-width="1" stroke="#bbbbbb" d="M 38 386.5 L 790 386.5" fill="none"></path><path opacity="1" stroke-dasharray="none" stroke-width="1" stroke="#bbbbbb" d="M 38 319.5 L 790 319.5" fill="none"></path><path opacity="1" stroke-dasharray="none" stroke-width="1" stroke="#bbbbbb" d="M 38 252.5 L 790 252.5" fill="none"></path><path opacity="1" stroke-dasharray="none" stroke-width="1" stroke="#bbbbbb" d="M 38 185.5 L 790 185.5" fill="none"></path><path opacity="1" stroke-dasharray="none" stroke-width="1" stroke="#bbbbbb" d="M 38 118.5 L 790 118.5" fill="none"></path><path opacity="1" stroke-dasharray="none" stroke-width="1" stroke="#bbbbbb" d="M 38 50.5 L 790 50.5" fill="none"></path><path opacity="1" stroke-dasharray="none" stroke-width="1" stroke="#bbbbbb" d="M 38 453.5 L 790 453.5" fill="none"></path></g><g class="highcharts-axis"><path opacity="1" stroke-width="1" stroke="#C0D0E0" d="M 363.5 453 L 363.5 458" fill="none"></path><path opacity="1" stroke-width="1" stroke="#C0D0E0" d="M 138.5 453 L 138.5 458" fill="none"></path><path opacity="1" stroke-width="1" stroke="#C0D0E0" d="M 213.5 453 L 213.5 458" fill="none"></path><path opacity="1" stroke-width="1" stroke="#C0D0E0" d="M 288.5 453 L 288.5 458" fill="none"></path><path opacity="1" stroke-width="1" stroke="#C0D0E0" d="M 438.5 453 L 438.5 458" fill="none"></path><path opacity="1" stroke-width="1" stroke="#C0D0E0" d="M 514.5 453 L 514.5 458" fill="none"></path><path opacity="1" stroke-width="1" stroke="#C0D0E0" d="M 589.5 453 L 589.5 458" fill="none"></path><path opacity="1" stroke-width="1" stroke="#C0D0E0" d="M 664.5 453 L 664.5 458" fill="none"></path><path opacity="1" stroke-width="1" stroke="#C0D0E0" d="M 739.5 453 L 739.5 458" fill="none"></path><path opacity="1" stroke-width="1" stroke="#C0D0E0" d="M 62.5 453 L 62.5 458" fill="none"></path><path visibility="visible" stroke-width="1" stroke="#C0D0E0" d="M 38 453.5 L 790 453.5" fill="none"></path></g><g class="highcharts-axis"></g><g class="highcharts-series-group"><g clip-path="url(#highcharts-6)" transform="translate(38,51) scale(1 1)" visibility="visible" class="highcharts-series"><path stroke-linecap="round" stroke-linejoin="round" stroke-width="1" stroke="#666666" d="M -6.312408759124088 299.49 L 0.06861313868613139 333.65999999999997 L 6.2437956204379566 320.26 L 12.624817518248175 336.34 L 18.8 236.51 L 25.18102189781022 261.97 L 31.56204379562044 332.99 L 37.53138686131387 332.99 L 43.91240875912409 232.48999999999998 L 50.087591240875916 348.4 L 56.46861313868613 182.24 L 62.643795620437956 162.14000000000001 L 69.02481751824818 172.85999999999999 L 75.4058394160584 165.49 L 81.58102189781022 110.55000000000001 L 87.96204379562045 229.81 L 94.13722627737226 205.69 L 100.51824817518249 183.57999999999998 L 106.8992700729927 192.29 L 112.66277372262775 215.73999999999998 L 119.04379562043796 166.82999999999998 L 125.21897810218978 243.21 L 131.6 197.65 L 137.77518248175184 270.67999999999995 L 144.15620437956204 146.73 L 150.53722627737227 178.89000000000001 L 156.7124087591241 154.77 L 163.09343065693432 140.02999999999997 L 169.26861313868613 121.94 L 175.64963503649636 210.38 L 182.03065693430656 141.37 L 187.79416058394162 241.2 L 194.17518248175185 130.64999999999998 L 200.35036496350367 170.85 L 206.73138686131387 186.92999999999998 L 212.9065693430657 237.85 L 219.2875912408759 190.27999999999997 L 225.66861313868614 247.23 L 231.84379562043796 268 L 238.2248175182482 180.9 L 244.4 201.67000000000002 L 250.78102189781023 138.69 L 257.16204379562043 205.02 L 262.92554744525546 291.45 L 269.3065693430657 246.56 L 275.48175182481754 209.71 L 281.86277372262776 261.29999999999995 L 288.03795620437955 270.67999999999995 L 294.4189781021898 238.52 L 300.8 230.48 L 306.97518248175186 284.08 L 313.35620437956203 238.52 L 319.5313868613139 263.31 L 325.9124087591241 237.85 L 332.29343065693433 192.29 L 338.26277372262774 215.73999999999998 L 344.64379562043797 235.84 L 350.8189781021898 204.35 L 357.2 182.24 L 363.37518248175184 265.32 L 369.75620437956206 172.85999999999999 L 376.1372262773723 135.34000000000003 L 382.3124087591241 130.64999999999998 L 388.6934306569343 172.85999999999999 L 394.86861313868616 139.35999999999996 L 401.2496350364964 87.76999999999998 L 407.6306569343066 90.44999999999999 L 413.39416058394164 123.94999999999999 L 419.77518248175187 203.01 L 425.95036496350366 187.6 L 432.3313868613139 176.88 L 438.50656934306573 183.57999999999998 L 444.8875912408759 94.47000000000003 L 451.26861313868613 170.17999999999998 L 457.443795620438 138.69 L 463.8248175182482 156.10999999999999 L 470 117.25 L 476.38102189781023 108.54000000000002 L 482.76204379562046 173.52999999999997 L 488.5255474452555 146.05999999999997 L 494.9065693430657 108.54000000000002 L 501.08175182481756 49.579999999999984 L 507.4627737226278 86.43 L 513.6379562043796 58.95999999999998 L 520.0189781021897 142.70999999999998 L 526.4 140.02999999999997 L 532.5751824817519 78.38999999999999 L 538.9562043795621 82.40999999999997 L 545.1313868613139 170.17999999999998 L 551.5124087591241 67 L 557.8934306569344 121.94 L 563.6569343065694 130.64999999999998 L 570.0379562043796 214.4 L 576.2131386861314 198.98999999999998 L 582.5941605839416 324.95 L 588.7693430656934 199.66 L 595.1503649635036 229.81 L 601.5313868613139 286.09 L 607.7065693430657 292.12 L 614.0875912408759 246.56 L 620.2627737226278 258.62 L 626.643795620438 217.07999999999998 L 633.0248175182483 176.20999999999998 L 638.9941605839416 285.42 L 645.3751824817518 203.01 L 651.5503649635036 243.21 L 657.9313868613139 176.88 L 664.1065693430658 221.77 L 670.487591240876 247.23 L 676.8686131386862 148.74 L 683.043795620438 207.7 L 689.4248175182482 172.85999999999999 L 695.6 157.45 L 701.9810218978103 128.64 L 708.3620437956205 176.20999999999998 L 714.1255474452555 149.40999999999997 L 720.5065693430657 134 L 726.6817518248175 176.88 L 733.0627737226278 186.92999999999998 L 739.2379562043795 188.94 L 745.6189781021898 155.44000000000003 L 752 186.92999999999998" fill="none"></path></g><g clip-path="none" transform="translate(38,51) scale(1 1)" visibility="visible" class="highcharts-markers"></g></g><text class="highcharts-title" text-anchor="middle" style="font-family:'lucida grande', 'lucida sans unicode', verdana, arial, helvetica, sans-serif;font-size:16px;color:#666666;fill:#666666;" y="25" x="400"><tspan x="400">Southern Oscillation Index - monthly</tspan></text><g class="highcharts-axis-labels"><text opacity="1" text-anchor="middle" style="font-family:'lucida grande', 'lucida sans unicode', verdana, arial, helvetica, sans-serif;font-size:11px;color:#666;cursor:default;line-height:14px;fill:#666;" y="467" x="364.1182481751825"><tspan x="364.1182481751825">2020</tspan></text><text opacity="1" text-anchor="middle" style="font-family:'lucida grande', 'lucida sans unicode', verdana, arial, helvetica, sans-serif;font-size:11px;color:#666;cursor:default;line-height:14px;fill:#666;" y="467" x="63.386861313868614"><tspan x="63.386861313868614">2016</tspan></text><text opacity="1" text-anchor="middle" style="font-family:'lucida grande', 'lucida sans unicode', verdana, arial, helvetica, sans-serif;font-size:11px;color:#666;cursor:default;line-height:14px;fill:#666;" y="467" x="138.72408759124087"><tspan x="138.72408759124087">2017</tspan></text><text opacity="1" text-anchor="middle" style="font-family:'lucida grande', 'lucida sans unicode', verdana, arial, helvetica, sans-serif;font-size:11px;color:#666;cursor:default;line-height:14px;fill:#666;" y="467" x="213.85547445255474"><tspan x="213.85547445255474">2018</tspan></text><text opacity="1" text-anchor="middle" style="font-family:'lucida grande', 'lucida sans unicode', verdana, arial, helvetica, sans-serif;font-size:11px;color:#666;cursor:default;line-height:14px;fill:#666;" y="467" x="288.98686131386864"><tspan x="288.98686131386864">2019</tspan></text><text opacity="1" text-anchor="middle" style="font-family:'lucida grande', 'lucida sans unicode', verdana, arial, helvetica, sans-serif;font-size:11px;color:#666;cursor:default;line-height:14px;fill:#666;" y="467" x="439.45547445255477"><tspan x="439.45547445255477">2021</tspan></text><text opacity="1" text-anchor="middle" style="font-family:'lucida grande', 'lucida sans unicode', verdana, arial, helvetica, sans-serif;font-size:11px;color:#666;cursor:default;line-height:14px;fill:#666;" y="467" x="514.5868613138687"><tspan x="514.5868613138687">2022</tspan></text><text opacity="1" text-anchor="middle" style="font-family:'lucida grande', 'lucida sans unicode', verdana, arial, helvetica, sans-serif;font-size:11px;color:#666;cursor:default;line-height:14px;fill:#666;" y="467" x="589.7182481751825"><tspan x="589.7182481751825">2023</tspan></text><text opacity="1" text-anchor="middle" style="font-family:'lucida grande', 'lucida sans unicode', verdana, arial, helvetica, sans-serif;font-size:11px;color:#666;cursor:default;line-height:14px;fill:#666;" y="467" x="664.8496350364964"><tspan x="664.8496350364964">2024</tspan></text><text opacity="1" text-anchor="middle" style="font-family:'lucida grande', 'lucida sans unicode', verdana, arial, helvetica, sans-serif;font-size:11px;color:#666;cursor:default;line-height:14px;fill:#666;" y="467" x="740.1868613138687"><tspan x="740.1868613138687">2025</tspan></text></g><g class="highcharts-axis-labels"><text opacity="1" text-anchor="end" style="font-family:'lucida grande', 'lucida sans unicode', verdana, arial, helvetica, sans-serif;font-size:11px;color:#606060;cursor:default;line-height:14px;fill:#606060;" y="456.25" x="30"><tspan x="30">-30</tspan></text><text opacity="1" text-anchor="end" style="font-family:'lucida grande', 'lucida sans unicode', verdana, arial, helvetica, sans-serif;font-size:11px;color:#606060;cursor:default;line-height:14px;fill:#606060;" y="389.25" x="30"><tspan x="30">-20</tspan></text><text opacity="1" text-anchor="end" style="font-family:'lucida grande', 'lucida sans unicode', verdana, arial, helvetica, sans-serif;font-size:11px;color:#606060;cursor:default;line-height:14px;fill:#606060;" y="322.25" x="30"><tspan x="30">-10</tspan></text><text opacity="1" text-anchor="end" style="font-family:'lucida grande', 'lucida sans unicode', verdana, arial, helvetica, sans-serif;font-size:11px;color:#606060;cursor:default;line-height:14px;fill:#606060;" y="255.25" x="30"><tspan x="30">0</tspan></text><text opacity="1" text-anchor="end" style="font-family:'lucida grande', 'lucida sans unicode', verdana, arial, helvetica, sans-serif;font-size:11px;color:#606060;cursor:default;line-height:14px;fill:#606060;" y="188.25" x="30"><tspan x="30">10</tspan></text><text opacity="1" text-anchor="end" style="font-family:'lucida grande', 'lucida sans unicode', verdana, arial, helvetica, sans-serif;font-size:11px;color:#606060;cursor:default;line-height:14px;fill:#606060;" y="121.25" x="30"><tspan x="30">20</tspan></text><text opacity="1" text-anchor="end" style="font-family:'lucida grande', 'lucida sans unicode', verdana, arial, helvetica, sans-serif;font-size:11px;color:#606060;cursor:default;line-height:14px;fill:#606060;" y="54.25" x="30"><tspan x="30">30</tspan></text></g><g transform="translate(0,-999)" style="cursor:default;padding:0;white-space:nowrap;" class="highcharts-tooltip"><rect transform="translate(1, 1)" stroke-width="5" stroke-opacity="0.049999999999999996" stroke="black" fill-opacity="0.85" height="16" width="16" y="0.5" x="0.5" fill="none" ry="3" rx="3"></rect><rect transform="translate(1, 1)" stroke-width="3" stroke-opacity="0.09999999999999999" stroke="black" fill-opacity="0.85" height="16" width="16" y="0.5" x="0.5" fill="none" ry="3" rx="3"></rect><rect transform="translate(1, 1)" stroke-width="1" stroke-opacity="0.15" stroke="black" fill-opacity="0.85" height="16" width="16" y="0.5" x="0.5" fill="none" ry="3" rx="3"></rect><rect fill-opacity="0.85" height="16" width="16" y="0.5" x="0.5" fill="rgb(255,255,255)" ry="3" rx="3"></rect><text style="font-family:'lucida grande', 'lucida sans unicode', verdana, arial, helvetica, sans-serif;font-size:12px;color:#333333;fill:#333333;" y="21" x="8"></text></g><text text-anchor="start" style="font-family:'lucida grande', 'lucida sans unicode', verdana, arial, helvetica, sans-serif;font-size:9px;cursor:pointer;color:#909090;fill:#909090;" y="498" x="10"><tspan x="10">© Copyright Commonwealth of Australia 2025, Bureau of Meteorology</tspan></text></svg>