<svg version="1.1" xmlns="http://www.w3.org/2000/svg" xmlns:xlink="http://www.w3.org/1999/xlink" width="716" height="536"><defs><clipPath id="PHwtbPWzWcii"><path fill="none" stroke="none" d=" M 0 0 L 716 0 L 716 536 L 0 536 L 0 0 Z"/></clipPath></defs><g transform="scale(1,1)" clip-path="url(#PHwtbPWzWcii)"><g><rect fill="rgb(255,255,255)" stroke="none" x="0" y="0" width="716" height="536" fill-opacity="1"/><path fill="none" stroke="rgb(192,192,192)" paint-order="fill stroke markers" d=" M 20.5 0.5 L 20.5 536.5 M 20.5 0.5 L 20.5 536.5 M 104.5 0.5 L 104.5 536.5 M 189.5 0.5 L 189.5 536.5 M 273.5 0.5 L 273.5 536.5 M 442.5 0.5 L 442.5 536.5 M 526.5 0.5 L 526.5 536.5 M 611.5 0.5 L 611.5 536.5 M 695.5 0.5 L 695.5 536.5" stroke-opacity="1" stroke-linecap="round" stroke-linejoin="round" stroke-miterlimit="10"/><path fill="none" stroke="rgb(192,192,192)" paint-order="fill stroke markers" d=" M 3.5 0.5 L 3.5 536.5 M 37.5 0.5 L 37.5 536.5 M 54.5 0.5 L 54.5 536.5 M 71.5 0.5 L 71.5 536.5 M 88.5 0.5 L 88.5 536.5 M 121.5 0.5 L 121.5 536.5 M 138.5 0.5 L 138.5 536.5 M 155.5 0.5 L 155.5 536.5 M 172.5 0.5 L 172.5 536.5 M 206.5 0.5 L 206.5 536.5 M 223.5 0.5 L 223.5 536.5 M 239.5 0.5 L 239.5 536.5 M 256.5 0.5 L 256.5 536.5 M 290.5 0.5 L 290.5 536.5 M 307.5 0.5 L 307.5 536.5 M 324.5 0.5 L 324.5 536.5 M 341.5 0.5 L 341.5 536.5 M 374.5 0.5 L 374.5 536.5 M 391.5 0.5 L 391.5 536.5 M 408.5 0.5 L 408.5 536.5 M 425.5 0.5 L 425.5 536.5 M 459.5 0.5 L 459.5 536.5 M 476.5 0.5 L 476.5 536.5 M 493.5 0.5 L 493.5 536.5 M 509.5 0.5 L 509.5 536.5 M 543.5 0.5 L 543.5 536.5 M 560.5 0.5 L 560.5 536.5 M 577.5 0.5 L 577.5 536.5 M 594.5 0.5 L 594.5 536.5 M 628.5 0.5 L 628.5 536.5 M 644.5 0.5 L 644.5 536.5 M 661.5 0.5 L 661.5 536.5 M 678.5 0.5 L 678.5 536.5 M 712.5 0.5 L 712.5 536.5" stroke-opacity="0.23529411764705882" stroke-linecap="round" stroke-linejoin="round" stroke-miterlimit="10"/><path fill="none" stroke="rgb(192,192,192)" paint-order="fill stroke markers" d=" M 0.5 14.5 L 716.5 14.5 M 0.5 14.5 L 716.5 14.5 M 0.5 99.5 L 716.5 99.5 M 0.5 183.5 L 716.5 183.5 M 0.5 352.5 L 716.5 352.5 M 0.5 436.5 L 716.5 436.5 M 0.5 521.5 L 716.5 521.5" stroke-opacity="1" stroke-linecap="round" stroke-linejoin="round" stroke-miterlimit="10"/><path fill="none" stroke="rgb(192,192,192)" paint-order="fill stroke markers" d=" M 0.5 14.5 L 716.5 14.5 M 0.5 31.5 L 716.5 31.5 M 0.5 48.5 L 716.5 48.5 M 0.5 65.5 L 716.5 65.5 M 0.5 82.5 L 716.5 82.5 M 0.5 116.5 L 716.5 116.5 M 0.5 133.5 L 716.5 133.5 M 0.5 149.5 L 716.5 149.5 M 0.5 166.5 L 716.5 166.5 M 0.5 200.5 L 716.5 200.5 M 0.5 217.5 L 716.5 217.5 M 0.5 234.5 L 716.5 234.5 M 0.5 251.5 L 716.5 251.5 M 0.5 284.5 L 716.5 284.5 M 0.5 301.5 L 716.5 301.5 M 0.5 318.5 L 716.5 318.5 M 0.5 335.5 L 716.5 335.5 M 0.5 369.5 L 716.5 369.5 M 0.5 386.5 L 716.5 386.5 M 0.5 403.5 L 716.5 403.5 M 0.5 419.5 L 716.5 419.5 M 0.5 453.5 L 716.5 453.5 M 0.5 470.5 L 716.5 470.5 M 0.5 487.5 L 716.5 487.5 M 0.5 504.5 L 716.5 504.5" stroke-opacity="0.23529411764705882" stroke-linecap="round" stroke-linejoin="round" stroke-miterlimit="10"/><path fill="none" stroke="rgb(37,37,37)" paint-order="fill stroke markers" d=" M 358.5 2.5 L 358.5 536.5" stroke-opacity="1" stroke-miterlimit="10"/><path fill="none" stroke="rgb(37,37,37)" paint-order="fill stroke markers" d=" M 358.5 1.5 L 354.5 5.5" stroke-opacity="1" stroke-miterlimit="10"/><path fill="none" stroke="rgb(37,37,37)" paint-order="fill stroke markers" d=" M 358.5 1.5 L 362.5 5.5" stroke-opacity="1" stroke-miterlimit="10"/><path fill="none" stroke="rgb(37,37,37)" paint-order="fill stroke markers" d=" M 0.5 268.5 L 714.5 268.5" stroke-opacity="1" stroke-miterlimit="10"/><path fill="none" stroke="rgb(37,37,37)" paint-order="fill stroke markers" d=" M 715.5 268.5 L 711.5 264.5" stroke-opacity="1" stroke-miterlimit="10"/><path fill="none" stroke="rgb(37,37,37)" paint-order="fill stroke markers" d=" M 715.5 268.5 L 711.5 272.5" stroke-opacity="1" stroke-miterlimit="10"/><text fill="rgb(37,37,37)" stroke="none" font-family="geogebra-sans-serif, sans-serif" font-size="12px" font-style="normal" font-weight="normal" text-decoration="normal" x="15" y="284" text-anchor="start" dominant-baseline="alphabetic" fill-opacity="1">–2</text><text fill="rgb(37,37,37)" stroke="none" font-family="geogebra-sans-serif, sans-serif" font-size="12px" font-style="normal" font-weight="normal" text-decoration="normal" x="93" y="284" text-anchor="start" dominant-baseline="alphabetic" fill-opacity="1">–1.5</text><text fill="rgb(37,37,37)" stroke="none" font-family="geogebra-sans-serif, sans-serif" font-size="12px" font-style="normal" font-weight="normal" text-decoration="normal" x="184" y="284" text-anchor="start" dominant-baseline="alphabetic" fill-opacity="1">–1</text><text fill="rgb(37,37,37)" stroke="none" font-family="geogebra-sans-serif, sans-serif" font-size="12px" font-style="normal" font-weight="normal" text-decoration="normal" x="262" y="284" text-anchor="start" dominant-baseline="alphabetic" fill-opacity="1">–0.5</text><text fill="rgb(37,37,37)" stroke="none" font-family="geogebra-sans-serif, sans-serif" font-size="12px" font-style="normal" font-weight="normal" text-decoration="normal" x="434" y="284" text-anchor="start" dominant-baseline="alphabetic" fill-opacity="1">0.5</text><text fill="rgb(37,37,37)" stroke="none" font-family="geogebra-sans-serif, sans-serif" font-size="12px" font-style="normal" font-weight="normal" text-decoration="normal" x="524" y="284" text-anchor="start" dominant-baseline="alphabetic" fill-opacity="1">1</text><text fill="rgb(37,37,37)" stroke="none" font-family="geogebra-sans-serif, sans-serif" font-size="12px" font-style="normal" font-weight="normal" text-decoration="normal" x="603" y="284" text-anchor="start" dominant-baseline="alphabetic" fill-opacity="1">1.5</text><text fill="rgb(37,37,37)" stroke="none" font-family="geogebra-sans-serif, sans-serif" font-size="12px" font-style="normal" font-weight="normal" text-decoration="normal" x="693" y="284" text-anchor="start" dominant-baseline="alphabetic" fill-opacity="1">2</text><text fill="rgb(37,37,37)" stroke="none" font-family="geogebra-sans-serif, sans-serif" font-size="12px" font-style="normal" font-weight="normal" text-decoration="normal" x="328" y="526" text-anchor="start" dominant-baseline="alphabetic" fill-opacity="1">–1.5</text><text fill="rgb(37,37,37)" stroke="none" font-family="geogebra-sans-serif, sans-serif" font-size="12px" font-style="normal" font-weight="normal" text-decoration="normal" x="337" y="441" text-anchor="start" dominant-baseline="alphabetic" fill-opacity="1">–1</text><text fill="rgb(37,37,37)" stroke="none" font-family="geogebra-sans-serif, sans-serif" font-size="12px" font-style="normal" font-weight="normal" text-decoration="normal" x="328" y="357" text-anchor="start" dominant-baseline="alphabetic" fill-opacity="1">–0.5</text><text fill="rgb(37,37,37)" stroke="none" font-family="geogebra-sans-serif, sans-serif" font-size="12px" font-style="normal" font-weight="normal" text-decoration="normal" x="334" y="188" text-anchor="start" dominant-baseline="alphabetic" fill-opacity="1">0.5</text><text fill="rgb(37,37,37)" stroke="none" font-family="geogebra-sans-serif, sans-serif" font-size="12px" font-style="normal" font-weight="normal" text-decoration="normal" x="344" y="104" text-anchor="start" dominant-baseline="alphabetic" fill-opacity="1">1</text><text fill="rgb(37,37,37)" stroke="none" font-family="geogebra-sans-serif, sans-serif" font-size="12px" font-style="normal" font-weight="normal" text-decoration="normal" x="334" y="19" text-anchor="start" dominant-baseline="alphabetic" fill-opacity="1">1.5</text><text fill="rgb(37,37,37)" stroke="none" font-family="geogebra-sans-serif, sans-serif" font-size="12px" font-style="normal" font-weight="normal" text-decoration="normal" x="344" y="284" text-anchor="start" dominant-baseline="alphabetic" fill-opacity="1">0</text><path fill="none" stroke="rgb(0,103,88)" paint-order="fill stroke markers" d=" M 526.7500000000002 268.0000000000001 C 526.7500000000002 361.1980515339465 451.1980515339465 436.75000000000017 358.0000000000001 436.75000000000017 C 264.8019484660537 436.75000000000017 189.25000000000006 361.1980515339465 189.25000000000006 268.0000000000001 C 189.25000000000006 174.80194846605372 264.8019484660537 99.25000000000006 358.0000000000001 99.25000000000006 C 451.1980515339465 99.25000000000006 526.7500000000002 174.80194846605372 526.7500000000002 268.0000000000001 Z" stroke-opacity="0.8" stroke-linecap="round" stroke-linejoin="round" stroke-miterlimit="10" stroke-width="2.5"/><path fill="none" stroke="rgb(255,0,0)" paint-order="fill stroke markers" d=" M 526.7500000000002 268.0000000000001 C 526.7500000000002 223.24471733957705 508.9710331883359 180.32249453787603 477.32426932523003 148.6757306747702" stroke-opacity="0.6980392156862745" stroke-linecap="round" stroke-linejoin="round" stroke-miterlimit="10" stroke-width="2.5"/><text fill="rgb(255,0,0)" stroke="none" font-family="geogebra-sans-serif, sans-serif" font-size="16px" font-style="normal" font-weight="normal" text-decoration="normal" x="519" y="197" text-anchor="start" dominant-baseline="alphabetic" fill-opacity="1">θ</text><path fill="none" stroke="rgb(128,128,128)" paint-order="fill stroke markers" d=" M 358.0000000000001 268.0000000000001 L 526.7500000000002 268.0000000000001" stroke-opacity="0.6980392156862745" stroke-linecap="round" stroke-linejoin="round" stroke-miterlimit="10" stroke-width="2.5"/><path fill="none" stroke="rgb(128,128,128)" paint-order="fill stroke markers" d=" M 358.0000000000001 268.0000000000001 L 477.32426932523003 148.6757306747702" stroke-opacity="0.6980392156862745" stroke-linecap="round" stroke-linejoin="round" stroke-miterlimit="10" stroke-width="2.5"/><path fill="rgb(110,109,115)" stroke="none" paint-order="stroke fill markers" d=" M 363.0000000000001 268.0000000000001 C 363.0000000000001 270.76142374915406 360.76142374915406 273.0000000000001 358.0000000000001 273.0000000000001 C 355.23857625084617 273.0000000000001 353.0000000000001 270.76142374915406 353.0000000000001 268.0000000000001 C 353.0000000000001 265.23857625084617 355.23857625084617 263.0000000000001 358.0000000000001 263.0000000000001 C 360.76142374915406 263.0000000000001 363.0000000000001 265.23857625084617 363.0000000000001 268.0000000000001 Z" fill-opacity="1"/><path fill="none" stroke="rgb(0,0,0)" paint-order="fill stroke markers" d=" M 363.0000000000001 268.0000000000001 C 363.0000000000001 270.76142374915406 360.76142374915406 273.0000000000001 358.0000000000001 273.0000000000001 C 355.23857625084617 273.0000000000001 353.0000000000001 270.76142374915406 353.0000000000001 268.0000000000001 C 353.0000000000001 265.23857625084617 355.23857625084617 263.0000000000001 358.0000000000001 263.0000000000001 C 360.76142374915406 263.0000000000001 363.0000000000001 265.23857625084617 363.0000000000001 268.0000000000001 Z" stroke-opacity="1" stroke-linecap="round" stroke-linejoin="round" stroke-miterlimit="10"/><text fill="rgb(110,109,115)" stroke="none" font-family="geogebra-sans-serif, sans-serif" font-size="16px" font-style="normal" font-weight="normal" text-decoration="normal" x="362" y="258" text-anchor="start" dominant-baseline="alphabetic" fill-opacity="1">O</text><path fill="rgb(110,109,115)" stroke="none" paint-order="stroke fill markers" d=" M 531.7500000000002 268.0000000000001 C 531.7500000000002 270.76142374915406 529.5114237491542 273.0000000000001 526.7500000000002 273.0000000000001 C 523.9885762508462 273.0000000000001 521.7500000000002 270.76142374915406 521.7500000000002 268.0000000000001 C 521.7500000000002 265.23857625084617 523.9885762508462 263.0000000000001 526.7500000000002 263.0000000000001 C 529.5114237491542 263.0000000000001 531.7500000000002 265.23857625084617 531.7500000000002 268.0000000000001 Z" fill-opacity="1"/><path fill="none" stroke="rgb(0,0,0)" paint-order="fill stroke markers" d=" M 531.7500000000002 268.0000000000001 C 531.7500000000002 270.76142374915406 529.5114237491542 273.0000000000001 526.7500000000002 273.0000000000001 C 523.9885762508462 273.0000000000001 521.7500000000002 270.76142374915406 521.7500000000002 268.0000000000001 C 521.7500000000002 265.23857625084617 523.9885762508462 263.0000000000001 526.7500000000002 263.0000000000001 C 529.5114237491542 263.0000000000001 531.7500000000002 265.23857625084617 531.7500000000002 268.0000000000001 Z" stroke-opacity="1" stroke-linecap="round" stroke-linejoin="round" stroke-miterlimit="10"/><text fill="rgb(110,109,115)" stroke="none" font-family="geogebra-sans-serif, sans-serif" font-size="16px" font-style="normal" font-weight="normal" text-decoration="normal" x="531" y="258" text-anchor="start" dominant-baseline="alphabetic" fill-opacity="1">X</text><path fill="rgb(110,109,115)" stroke="none" paint-order="stroke fill markers" d=" M 482.32426932523003 148.6757306747702 C 482.32426932523003 151.43715442392417 480.085693074384 153.6757306747702 477.32426932523003 153.6757306747702 C 474.5628455760761 153.6757306747702 472.32426932523003 151.43715442392417 472.32426932523003 148.6757306747702 C 472.32426932523003 145.91430692561622 474.5628455760761 143.6757306747702 477.32426932523003 143.6757306747702 C 480.085693074384 143.6757306747702 482.32426932523003 145.91430692561622 482.32426932523003 148.6757306747702 Z" fill-opacity="1"/><path fill="none" stroke="rgb(0,0,0)" paint-order="fill stroke markers" d=" M 482.32426932523003 148.6757306747702 C 482.32426932523003 151.43715442392417 480.085693074384 153.6757306747702 477.32426932523003 153.6757306747702 C 474.5628455760761 153.6757306747702 472.32426932523003 151.43715442392417 472.32426932523003 148.6757306747702 C 472.32426932523003 145.91430692561622 474.5628455760761 143.6757306747702 477.32426932523003 143.6757306747702 C 480.085693074384 143.6757306747702 482.32426932523003 145.91430692561622 482.32426932523003 148.6757306747702 Z" stroke-opacity="1" stroke-linecap="round" stroke-linejoin="round" stroke-miterlimit="10"/><text fill="rgb(110,109,115)" stroke="none" font-family="geogebra-sans-serif, sans-serif" font-size="16px" font-style="normal" font-weight="normal" text-decoration="normal" x="481" y="139" text-anchor="start" dominant-baseline="alphabetic" fill-opacity="1">A</text></g></g></svg>