<svg version="1.1" xmlns="http://www.w3.org/2000/svg" xmlns:xlink="http://www.w3.org/1999/xlink" width="800" height="600"><defs><clipPath id="cbiSNSpOXonn"><path fill="none" stroke="none" d=" M 0 0 L 800 0 L 800 600 L 0 600 L 0 0 Z"/></clipPath></defs><g transform="scale(1,1)" clip-path="url(#cbiSNSpOXonn)"><g><rect fill="rgb(255,255,255)" stroke="none" x="0" y="0" width="800" height="600" fill-opacity="1"/><path fill="none" stroke="rgb(192,192,192)" paint-order="fill stroke markers" d=" M 26.5 0.5 L 26.5 600.5 M 26.5 0.5 L 26.5 600.5 M 118.5 0.5 L 118.5 600.5 M 211.5 0.5 L 211.5 600.5 M 303.5 0.5 L 303.5 600.5 M 488.5 0.5 L 488.5 600.5 M 580.5 0.5 L 580.5 600.5 M 672.5 0.5 L 672.5 600.5 M 765.5 0.5 L 765.5 600.5" stroke-opacity="1" stroke-linecap="round" stroke-linejoin="round" stroke-miterlimit="10"/><path fill="none" stroke="rgb(192,192,192)" paint-order="fill stroke markers" d=" M 8.5 0.5 L 8.5 600.5 M 45.5 0.5 L 45.5 600.5 M 63.5 0.5 L 63.5 600.5 M 82.5 0.5 L 82.5 600.5 M 100.5 0.5 L 100.5 600.5 M 137.5 0.5 L 137.5 600.5 M 155.5 0.5 L 155.5 600.5 M 174.5 0.5 L 174.5 600.5 M 192.5 0.5 L 192.5 600.5 M 229.5 0.5 L 229.5 600.5 M 248.5 0.5 L 248.5 600.5 M 266.5 0.5 L 266.5 600.5 M 285.5 0.5 L 285.5 600.5 M 322.5 0.5 L 322.5 600.5 M 340.5 0.5 L 340.5 600.5 M 359.5 0.5 L 359.5 600.5 M 377.5 0.5 L 377.5 600.5 M 414.5 0.5 L 414.5 600.5 M 432.5 0.5 L 432.5 600.5 M 451.5 0.5 L 451.5 600.5 M 469.5 0.5 L 469.5 600.5 M 506.5 0.5 L 506.5 600.5 M 525.5 0.5 L 525.5 600.5 M 543.5 0.5 L 543.5 600.5 M 562.5 0.5 L 562.5 600.5 M 599.5 0.5 L 599.5 600.5 M 617.5 0.5 L 617.5 600.5 M 635.5 0.5 L 635.5 600.5 M 654.5 0.5 L 654.5 600.5 M 691.5 0.5 L 691.5 600.5 M 709.5 0.5 L 709.5 600.5 M 728.5 0.5 L 728.5 600.5 M 746.5 0.5 L 746.5 600.5 M 783.5 0.5 L 783.5 600.5" stroke-opacity="0.23529411764705882" stroke-linecap="round" stroke-linejoin="round" stroke-miterlimit="10"/><path fill="none" stroke="rgb(192,192,192)" paint-order="fill stroke markers" d=" M 0.5 31.5 L 800.5 31.5 M 0.5 31.5 L 800.5 31.5 M 0.5 124.5 L 800.5 124.5 M 0.5 216.5 L 800.5 216.5 M 0.5 400.5 L 800.5 400.5 M 0.5 493.5 L 800.5 493.5 M 0.5 585.5 L 800.5 585.5" stroke-opacity="1" stroke-linecap="round" stroke-linejoin="round" stroke-miterlimit="10"/><path fill="none" stroke="rgb(192,192,192)" paint-order="fill stroke markers" d=" M 0.5 13.5 L 800.5 13.5 M 0.5 13.5 L 800.5 13.5 M 0.5 50.5 L 800.5 50.5 M 0.5 68.5 L 800.5 68.5 M 0.5 87.5 L 800.5 87.5 M 0.5 105.5 L 800.5 105.5 M 0.5 142.5 L 800.5 142.5 M 0.5 160.5 L 800.5 160.5 M 0.5 179.5 L 800.5 179.5 M 0.5 197.5 L 800.5 197.5 M 0.5 234.5 L 800.5 234.5 M 0.5 253.5 L 800.5 253.5 M 0.5 271.5 L 800.5 271.5 M 0.5 290.5 L 800.5 290.5 M 0.5 327.5 L 800.5 327.5 M 0.5 345.5 L 800.5 345.5 M 0.5 364.5 L 800.5 364.5 M 0.5 382.5 L 800.5 382.5 M 0.5 419.5 L 800.5 419.5 M 0.5 437.5 L 800.5 437.5 M 0.5 456.5 L 800.5 456.5 M 0.5 474.5 L 800.5 474.5 M 0.5 511.5 L 800.5 511.5 M 0.5 530.5 L 800.5 530.5 M 0.5 548.5 L 800.5 548.5 M 0.5 567.5 L 800.5 567.5" stroke-opacity="0.23529411764705882" stroke-linecap="round" stroke-linejoin="round" stroke-miterlimit="10"/><path fill="none" stroke="rgb(37,37,37)" paint-order="fill stroke markers" d=" M 395.5 2.5 L 395.5 600.5" stroke-opacity="1" stroke-miterlimit="10"/><path fill="none" stroke="rgb(37,37,37)" paint-order="fill stroke markers" d=" M 395.5 1.5 L 391.5 5.5" stroke-opacity="1" stroke-miterlimit="10"/><path fill="none" stroke="rgb(37,37,37)" paint-order="fill stroke markers" d=" M 395.5 1.5 L 399.5 5.5" stroke-opacity="1" stroke-miterlimit="10"/><path fill="none" stroke="rgb(37,37,37)" paint-order="fill stroke markers" d=" M 0.5 308.5 L 798.5 308.5" stroke-opacity="1" stroke-miterlimit="10"/><path fill="none" stroke="rgb(37,37,37)" paint-order="fill stroke markers" d=" M 799.5 308.5 L 795.5 304.5" stroke-opacity="1" stroke-miterlimit="10"/><path fill="none" stroke="rgb(37,37,37)" paint-order="fill stroke markers" d=" M 799.5 308.5 L 795.5 312.5" stroke-opacity="1" stroke-miterlimit="10"/><text fill="rgb(37,37,37)" stroke="none" font-family="geogebra-sans-serif, sans-serif" font-size="12px" font-style="normal" font-weight="normal" text-decoration="normal" x="21" y="324" text-anchor="start" dominant-baseline="alphabetic" fill-opacity="1">–2</text><text fill="rgb(37,37,37)" stroke="none" font-family="geogebra-sans-serif, sans-serif" font-size="12px" font-style="normal" font-weight="normal" text-decoration="normal" x="107" y="324" text-anchor="start" dominant-baseline="alphabetic" fill-opacity="1">–1.5</text><text fill="rgb(37,37,37)" stroke="none" font-family="geogebra-sans-serif, sans-serif" font-size="12px" font-style="normal" font-weight="normal" text-decoration="normal" x="206" y="324" text-anchor="start" dominant-baseline="alphabetic" fill-opacity="1">–1</text><text fill="rgb(37,37,37)" stroke="none" font-family="geogebra-sans-serif, sans-serif" font-size="12px" font-style="normal" font-weight="normal" text-decoration="normal" x="292" y="324" text-anchor="start" dominant-baseline="alphabetic" fill-opacity="1">–0.5</text><text fill="rgb(37,37,37)" stroke="none" font-family="geogebra-sans-serif, sans-serif" font-size="12px" font-style="normal" font-weight="normal" text-decoration="normal" x="480" y="324" text-anchor="start" dominant-baseline="alphabetic" fill-opacity="1">0.5</text><text fill="rgb(37,37,37)" stroke="none" font-family="geogebra-sans-serif, sans-serif" font-size="12px" font-style="normal" font-weight="normal" text-decoration="normal" x="578" y="324" text-anchor="start" dominant-baseline="alphabetic" fill-opacity="1">1</text><text fill="rgb(37,37,37)" stroke="none" font-family="geogebra-sans-serif, sans-serif" font-size="12px" font-style="normal" font-weight="normal" text-decoration="normal" x="664" y="324" text-anchor="start" dominant-baseline="alphabetic" fill-opacity="1">1.5</text><text fill="rgb(37,37,37)" stroke="none" font-family="geogebra-sans-serif, sans-serif" font-size="12px" font-style="normal" font-weight="normal" text-decoration="normal" x="763" y="324" text-anchor="start" dominant-baseline="alphabetic" fill-opacity="1">2</text><text fill="rgb(37,37,37)" stroke="none" font-family="geogebra-sans-serif, sans-serif" font-size="12px" font-style="normal" font-weight="normal" text-decoration="normal" x="365" y="590" text-anchor="start" dominant-baseline="alphabetic" fill-opacity="1">–1.5</text><text fill="rgb(37,37,37)" stroke="none" font-family="geogebra-sans-serif, sans-serif" font-size="12px" font-style="normal" font-weight="normal" text-decoration="normal" x="374" y="498" text-anchor="start" dominant-baseline="alphabetic" fill-opacity="1">–1</text><text fill="rgb(37,37,37)" stroke="none" font-family="geogebra-sans-serif, sans-serif" font-size="12px" font-style="normal" font-weight="normal" text-decoration="normal" x="365" y="405" text-anchor="start" dominant-baseline="alphabetic" fill-opacity="1">–0.5</text><text fill="rgb(37,37,37)" stroke="none" font-family="geogebra-sans-serif, sans-serif" font-size="12px" font-style="normal" font-weight="normal" text-decoration="normal" x="371" y="221" text-anchor="start" dominant-baseline="alphabetic" fill-opacity="1">0.5</text><text fill="rgb(37,37,37)" stroke="none" font-family="geogebra-sans-serif, sans-serif" font-size="12px" font-style="normal" font-weight="normal" text-decoration="normal" x="381" y="129" text-anchor="start" dominant-baseline="alphabetic" fill-opacity="1">1</text><text fill="rgb(37,37,37)" stroke="none" font-family="geogebra-sans-serif, sans-serif" font-size="12px" font-style="normal" font-weight="normal" text-decoration="normal" x="371" y="36" text-anchor="start" dominant-baseline="alphabetic" fill-opacity="1">1.5</text><text fill="rgb(37,37,37)" stroke="none" font-family="geogebra-sans-serif, sans-serif" font-size="12px" font-style="normal" font-weight="normal" text-decoration="normal" x="381" y="324" text-anchor="start" dominant-baseline="alphabetic" fill-opacity="1">0</text><path fill="none" stroke="rgb(0,103,88)" paint-order="fill stroke markers" d=" M -8.129422617749242 668.0578382893091 L 13.266180913967105 643.8235216484063 L 32.53101758047933 621.6488069843767 L 49.939675030257774 601.2563965852866 L 65.7202523209383 582.4153419565934 L 80.06372216125862 564.9316725028723 L 93.13111265376568 548.641203990126 L 105.05907840192498 533.4039568577716 L 115.9642667153164 519.0997785720544 L 125.94677184404054 505.62487700700075 L 135.09289146165338 492.88905054160296 L 143.47734391850142 480.8134562489814 L 151.16506486184187 469.32879746701286 L 158.21267285362606 458.37384099215114 L 164.66967236629037 447.89419537366007 L 170.5794467826386 437.8412975226761 L 175.98008223127198 428.17156662574865 L 180.90505417692376 418.8456932425105 L 185.38380189189724 409.82803823507794 L 189.44221071352973 401.086121369234 L 193.10301794728815 392.59018343973474 L 196.38615511652617 384.31280889274615 L 199.30903677483727 376.2285983598861 L 201.88680412674913 368.3138824382358 L 204.13253012825618 360.54646956679267 L 206.0573914703988 352.90542205077435 L 207.67081181809593 345.3708552379615 L 208.9805798298483 337.92375560678425 L 209.99294478061148 330.54581412286154 L 210.71269201771835 323.2192716886786 L 211.1431999723498 315.9267738723935 L 211.28648000571738 308.651232373136 L 211.1431999723498 301.3756908738785 L 210.71269201771835 294.0831930575934 L 209.99294478061148 286.75665062341045 L 208.9805798298483 279.37870913948774 L 207.67081181809593 271.9316095083105 L 206.0573914703988 264.39704269549765 L 204.13253012825618 256.7559951794793 L 201.88680412674913 248.98858230803617 L 199.30903677483727 241.07386638638587 L 196.38615511652617 232.98965585352585 L 193.10301794728815 224.71228130653725 L 189.44221071352973 216.21634337703802 L 185.38380189189724 207.47442651119405 L 180.90505417692376 198.4567715037615 L 175.98008223127198 189.13089812052334 L 170.5794467826386 179.46116722359588 L 164.66967236629037 169.40826937261195 L 158.21267285362606 158.92862375412082 L 151.16506486184187 147.97366727925913 L 143.47734391850142 136.48900849729054 L 135.09289146165338 124.41341420466901 L 125.94677184404054 111.67758773927125 L 115.9642667153164 98.20268617421752 L 105.05907840192498 83.89850788850035 L 93.13111265376568 68.66126075614602 L 80.06372216125862 52.370792243399706 L 65.7202523209383 34.88712278967864 L 49.939675030257774 16.046068160985442 L 32.53101758047933 -4.346342238104683 L 13.266180913967105 -26.52105690213432 L -8.129422617749242 -50.75537354303708" stroke-opacity="0.8" stroke-linecap="round" stroke-linejoin="round" stroke-miterlimit="10" stroke-width="2.5"/><path fill="none" stroke="rgb(0,103,88)" paint-order="fill stroke markers" d=" M 800 668.0578382893091 L 778.6043964682837 643.8235216484063 L 759.3395598017714 621.6488069843767 L 741.9309023519929 601.2563965852866 L 726.1503250613125 582.4153419565934 L 711.8068552209921 564.9316725028723 L 698.739464728485 548.641203990126 L 686.8114989803257 533.4039568577716 L 675.9063106669344 519.0997785720544 L 665.9238055382102 505.62487700700075 L 656.7776859205974 492.88905054160296 L 648.3932334637493 480.8134562489814 L 640.7055125204089 469.32879746701286 L 633.6579045286247 458.37384099215114 L 627.2009050159604 447.89419537366007 L 621.2911305996122 437.8412975226761 L 615.8904951509787 428.17156662574865 L 610.965523205327 418.8456932425105 L 606.4867754903535 409.82803823507794 L 602.4283666687211 401.086121369234 L 598.7675594349625 392.59018343973474 L 595.4844222657246 384.31280889274615 L 592.5615406074135 376.2285983598861 L 589.9837732555017 368.3138824382358 L 587.7380472539946 360.54646956679267 L 585.813185911852 352.90542205077435 L 584.1997655641549 345.3708552379615 L 582.8899975524025 337.92375560678425 L 581.8776326016393 330.54581412286154 L 581.1578853645324 323.2192716886786 L 580.727377409901 315.9267738723935 L 580.5840973765334 308.651232373136 L 580.727377409901 301.3756908738785 L 581.1578853645324 294.0831930575934 L 581.8776326016393 286.75665062341045 L 582.8899975524025 279.37870913948774 L 584.1997655641549 271.9316095083105 L 585.813185911852 264.39704269549765 L 587.7380472539946 256.7559951794793 L 589.9837732555017 248.98858230803617 L 592.5615406074135 241.07386638638587 L 595.4844222657246 232.98965585352585 L 598.7675594349625 224.71228130653725 L 602.4283666687211 216.21634337703802 L 606.4867754903535 207.47442651119405 L 610.965523205327 198.4567715037615 L 615.8904951509787 189.13089812052334 L 621.2911305996122 179.46116722359588 L 627.2009050159604 169.40826937261195 L 633.6579045286247 158.92862375412082 L 640.7055125204089 147.97366727925913 L 648.3932334637493 136.48900849729054 L 656.7776859205974 124.41341420466901 L 665.9238055382102 111.67758773927125 L 675.9063106669344 98.20268617421752 L 686.8114989803257 83.89850788850035 L 698.739464728485 68.66126075614602 L 711.8068552209921 52.370792243399706 L 726.1503250613125 34.88712278967864 L 741.9309023519929 16.046068160985442 L 759.3395598017714 -4.346342238104683 L 778.6043964682837 -26.52105690213432 L 800 -50.75537354303708" stroke-opacity="0.8" stroke-linecap="round" stroke-linejoin="round" stroke-miterlimit="10" stroke-width="2.5"/><path fill="rgb(255,0,0)" stroke="none" paint-order="stroke fill markers" d=" M 636.5066841381689 154.50041823170642 L 395.93528869112544 308.651232373136 L 580.5840973765334 308.651232373136 L 580.727377409901 301.3756908738785 L 581.1578853645324 294.0831930575934 L 581.8776326016393 286.75665062341045 L 582.8899975524025 279.37870913948774 L 584.1997655641549 271.9316095083105 L 585.813185911852 264.39704269549765 L 587.7380472539946 256.7559951794793 L 589.9837732555017 248.98858230803617 L 592.5615406074135 241.07386638638587 L 595.4844222657246 232.98965585352585 L 598.7675594349625 224.71228130653725 L 602.4283666687211 216.21634337703802 L 606.4867754903535 207.47442651119405 L 610.965523205327 198.4567715037615 L 615.8904951509787 189.13089812052334 L 621.2911305996122 179.46116722359588 L 627.2009050159604 169.40826937261195 L 633.6579045286247 158.92862375412082 L 636.5066841381689 154.50041823170642 Z M 395.9352886911254 308.651232373136 L 395.9352886911254 308.65123237313605 L 395.9352886911253 308.65123237313605 L 395.93528869112544 308.651232373136 Z" fill-opacity="0.24705882352941178"/><path fill="none" stroke="rgb(128,128,128)" paint-order="fill stroke markers" d=" M 395.9352886911254 308.651232373136 L 636.446942215956 154.53869903367112" stroke-opacity="0.6980392156862745" stroke-linecap="round" stroke-linejoin="round" stroke-miterlimit="10" stroke-width="2.5"/><path fill="none" stroke="rgb(128,128,128)" paint-order="fill stroke markers" d=" M 580.5840973765334 308.651232373136 L 395.9352886911254 308.651232373136" stroke-opacity="0.6980392156862745" stroke-linecap="round" stroke-linejoin="round" stroke-miterlimit="10" stroke-width="2.5"/><text fill="rgb(128,128,128)" stroke="none" font-family="geogebra-sans-serif, sans-serif" font-size="16px" font-style="normal" font-weight="normal" text-decoration="normal" x="516" y="170" text-anchor="start" dominant-baseline="alphabetic" fill-opacity="1">cosh</text><path fill="none" stroke="rgb(128,128,128)" paint-order="fill stroke markers" d=" M 395.9352886911254 154.53869903367112 L 636.446942215956 154.53869903367112" stroke-opacity="0.6980392156862745" stroke-linecap="round" stroke-linejoin="round" stroke-miterlimit="10" stroke-width="2.5"/><text fill="rgb(128,128,128)" stroke="none" font-family="geogebra-sans-serif, sans-serif" font-size="16px" font-style="normal" font-weight="normal" text-decoration="normal" x="652" y="231" text-anchor="start" dominant-baseline="alphabetic" fill-opacity="1">sinh</text><path fill="none" stroke="rgb(128,128,128)" paint-order="fill stroke markers" d=" M 636.446942215956 308.651232373136 L 636.446942215956 154.53869903367112" stroke-opacity="0.6980392156862745" stroke-linecap="round" stroke-linejoin="round" stroke-miterlimit="10" stroke-width="2.5"/><path fill="rgb(128,128,128)" stroke="none" paint-order="stroke fill markers" d=" M 641.446942215956 154.53869903367112 C 641.446942215956 157.3001227828251 639.20836596511 159.53869903367112 636.446942215956 159.53869903367112 C 633.685518466802 159.53869903367112 631.446942215956 157.3001227828251 631.446942215956 154.53869903367112 C 631.446942215956 151.77727528451715 633.685518466802 149.53869903367112 636.446942215956 149.53869903367112 C 639.20836596511 149.53869903367112 641.446942215956 151.77727528451715 641.446942215956 154.53869903367112 Z" fill-opacity="1"/><path fill="none" stroke="rgb(0,0,0)" paint-order="fill stroke markers" d=" M 641.446942215956 154.53869903367112 C 641.446942215956 157.3001227828251 639.20836596511 159.53869903367112 636.446942215956 159.53869903367112 C 633.685518466802 159.53869903367112 631.446942215956 157.3001227828251 631.446942215956 154.53869903367112 C 631.446942215956 151.77727528451715 633.685518466802 149.53869903367112 636.446942215956 149.53869903367112 C 639.20836596511 149.53869903367112 641.446942215956 151.77727528451715 641.446942215956 154.53869903367112 Z" stroke-opacity="1" stroke-linecap="round" stroke-linejoin="round" stroke-miterlimit="10"/><text fill="rgb(128,128,128)" stroke="none" font-family="geogebra-sans-serif, sans-serif" font-size="16px" font-style="normal" font-weight="normal" text-decoration="normal" x="640" y="145" text-anchor="start" dominant-baseline="alphabetic" fill-opacity="1">A</text><path fill="rgb(128,128,128)" stroke="none" paint-order="stroke fill markers" d=" M 400.9352886911254 308.651232373136 C 400.9352886911254 311.41265612228995 398.6967124402793 313.651232373136 395.9352886911254 313.651232373136 C 393.17386494197143 313.651232373136 390.9352886911254 311.41265612228995 390.9352886911254 308.651232373136 C 390.9352886911254 305.88980862398205 393.17386494197143 303.651232373136 395.9352886911254 303.651232373136 C 398.6967124402793 303.651232373136 400.9352886911254 305.88980862398205 400.9352886911254 308.651232373136 Z" fill-opacity="1"/><path fill="none" stroke="rgb(0,0,0)" paint-order="fill stroke markers" d=" M 400.9352886911254 308.651232373136 C 400.9352886911254 311.41265612228995 398.6967124402793 313.651232373136 395.9352886911254 313.651232373136 C 393.17386494197143 313.651232373136 390.9352886911254 311.41265612228995 390.9352886911254 308.651232373136 C 390.9352886911254 305.88980862398205 393.17386494197143 303.651232373136 395.9352886911254 303.651232373136 C 398.6967124402793 303.651232373136 400.9352886911254 305.88980862398205 400.9352886911254 308.651232373136 Z" stroke-opacity="1" stroke-linecap="round" stroke-linejoin="round" stroke-miterlimit="10"/><text fill="rgb(128,128,128)" stroke="none" font-family="geogebra-sans-serif, sans-serif" font-size="16px" font-style="normal" font-weight="normal" text-decoration="normal" x="400" y="299" text-anchor="start" dominant-baseline="alphabetic" fill-opacity="1">O</text><path fill="rgb(128,128,128)" stroke="none" paint-order="stroke fill markers" d=" M 585.5840973765334 308.651232373136 C 585.5840973765334 311.41265612228995 583.3455211256874 313.651232373136 580.5840973765334 313.651232373136 C 577.8226736273793 313.651232373136 575.5840973765334 311.41265612228995 575.5840973765334 308.651232373136 C 575.5840973765334 305.88980862398205 577.8226736273793 303.651232373136 580.5840973765334 303.651232373136 C 583.3455211256874 303.651232373136 585.5840973765334 305.88980862398205 585.5840973765334 308.651232373136 Z" fill-opacity="1"/><path fill="none" stroke="rgb(0,0,0)" paint-order="fill stroke markers" d=" M 585.5840973765334 308.651232373136 C 585.5840973765334 311.41265612228995 583.3455211256874 313.651232373136 580.5840973765334 313.651232373136 C 577.8226736273793 313.651232373136 575.5840973765334 311.41265612228995 575.5840973765334 308.651232373136 C 575.5840973765334 305.88980862398205 577.8226736273793 303.651232373136 580.5840973765334 303.651232373136 C 583.3455211256874 303.651232373136 585.5840973765334 305.88980862398205 585.5840973765334 308.651232373136 Z" stroke-opacity="1" stroke-linecap="round" stroke-linejoin="round" stroke-miterlimit="10"/><text fill="rgb(128,128,128)" stroke="none" font-family="geogebra-sans-serif, sans-serif" font-size="16px" font-style="normal" font-weight="normal" text-decoration="normal" x="585" y="299" text-anchor="start" dominant-baseline="alphabetic" fill-opacity="1">X</text><path fill="rgb(128,128,128)" stroke="none" paint-order="stroke fill markers" d=" M 400.9352886911254 154.53869903367112 C 400.9352886911254 157.3001227828251 398.6967124402793 159.53869903367112 395.9352886911254 159.53869903367112 C 393.17386494197143 159.53869903367112 390.9352886911254 157.3001227828251 390.9352886911254 154.53869903367112 C 390.9352886911254 151.77727528451715 393.17386494197143 149.53869903367112 395.9352886911254 149.53869903367112 C 398.6967124402793 149.53869903367112 400.9352886911254 151.77727528451715 400.9352886911254 154.53869903367112 Z" fill-opacity="1"/><path fill="none" stroke="rgb(0,0,0)" paint-order="fill stroke markers" d=" M 400.9352886911254 154.53869903367112 C 400.9352886911254 157.3001227828251 398.6967124402793 159.53869903367112 395.9352886911254 159.53869903367112 C 393.17386494197143 159.53869903367112 390.9352886911254 157.3001227828251 390.9352886911254 154.53869903367112 C 390.9352886911254 151.77727528451715 393.17386494197143 149.53869903367112 395.9352886911254 149.53869903367112 C 398.6967124402793 149.53869903367112 400.9352886911254 151.77727528451715 400.9352886911254 154.53869903367112 Z" stroke-opacity="1" stroke-linecap="round" stroke-linejoin="round" stroke-miterlimit="10"/><text fill="rgb(128,128,128)" stroke="none" font-family="geogebra-sans-serif, sans-serif" font-size="16px" font-style="normal" font-weight="normal" text-decoration="normal" x="400" y="145" text-anchor="start" dominant-baseline="alphabetic" fill-opacity="1">B</text><path fill="rgb(128,128,128)" stroke="none" paint-order="stroke fill markers" d=" M 641.446942215956 308.651232373136 C 641.446942215956 311.41265612228995 639.20836596511 313.651232373136 636.446942215956 313.651232373136 C 633.685518466802 313.651232373136 631.446942215956 311.41265612228995 631.446942215956 308.651232373136 C 631.446942215956 305.88980862398205 633.685518466802 303.651232373136 636.446942215956 303.651232373136 C 639.20836596511 303.651232373136 641.446942215956 305.88980862398205 641.446942215956 308.651232373136 Z" fill-opacity="1"/><path fill="none" stroke="rgb(0,0,0)" paint-order="fill stroke markers" d=" M 641.446942215956 308.651232373136 C 641.446942215956 311.41265612228995 639.20836596511 313.651232373136 636.446942215956 313.651232373136 C 633.685518466802 313.651232373136 631.446942215956 311.41265612228995 631.446942215956 308.651232373136 C 631.446942215956 305.88980862398205 633.685518466802 303.651232373136 636.446942215956 303.651232373136 C 639.20836596511 303.651232373136 641.446942215956 305.88980862398205 641.446942215956 308.651232373136 Z" stroke-opacity="1" stroke-linecap="round" stroke-linejoin="round" stroke-miterlimit="10"/><text fill="rgb(128,128,128)" stroke="none" font-family="geogebra-sans-serif, sans-serif" font-size="16px" font-style="normal" font-weight="normal" text-decoration="normal" x="640" y="299" text-anchor="start" dominant-baseline="alphabetic" fill-opacity="1">C</text></g></g></svg>