<svg version="1.1" xmlns="http://www.w3.org/2000/svg" xmlns:xlink="http://www.w3.org/1999/xlink" width="796" height="609"><defs><clipPath id="tpfuVEartgRs"><path fill="none" stroke="none" d=" M 0 0 L 796 0 L 796 609 L 0 609 L 0 0 Z"/></clipPath></defs><g transform="scale(1,1)" clip-path="url(#tpfuVEartgRs)"><g><rect fill="rgb(255,255,255)" stroke="none" x="0" y="0" width="796" height="609" fill-opacity="1"/><path fill="none" stroke="rgb(192,192,192)" paint-order="fill stroke markers" d=" M 24.5 0.5 L 24.5 609.5 M 24.5 0.5 L 24.5 609.5 M 117.5 0.5 L 117.5 609.5 M 210.5 0.5 L 210.5 609.5 M 303.5 0.5 L 303.5 609.5 M 490.5 0.5 L 490.5 609.5 M 583.5 0.5 L 583.5 609.5 M 676.5 0.5 L 676.5 609.5 M 770.5 0.5 L 770.5 609.5" stroke-opacity="1" stroke-linecap="round" stroke-linejoin="round" stroke-miterlimit="10"/><path fill="none" stroke="rgb(192,192,192)" paint-order="fill stroke markers" d=" M 5.5 0.5 L 5.5 609.5 M 42.5 0.5 L 42.5 609.5 M 61.5 0.5 L 61.5 609.5 M 80.5 0.5 L 80.5 609.5 M 98.5 0.5 L 98.5 609.5 M 136.5 0.5 L 136.5 609.5 M 154.5 0.5 L 154.5 609.5 M 173.5 0.5 L 173.5 609.5 M 191.5 0.5 L 191.5 609.5 M 229.5 0.5 L 229.5 609.5 M 247.5 0.5 L 247.5 609.5 M 266.5 0.5 L 266.5 609.5 M 285.5 0.5 L 285.5 609.5 M 322.5 0.5 L 322.5 609.5 M 341.5 0.5 L 341.5 609.5 M 359.5 0.5 L 359.5 609.5 M 378.5 0.5 L 378.5 609.5 M 415.5 0.5 L 415.5 609.5 M 434.5 0.5 L 434.5 609.5 M 453.5 0.5 L 453.5 609.5 M 471.5 0.5 L 471.5 609.5 M 509.5 0.5 L 509.5 609.5 M 527.5 0.5 L 527.5 609.5 M 546.5 0.5 L 546.5 609.5 M 564.5 0.5 L 564.5 609.5 M 602.5 0.5 L 602.5 609.5 M 620.5 0.5 L 620.5 609.5 M 639.5 0.5 L 639.5 609.5 M 658.5 0.5 L 658.5 609.5 M 695.5 0.5 L 695.5 609.5 M 714.5 0.5 L 714.5 609.5 M 732.5 0.5 L 732.5 609.5 M 751.5 0.5 L 751.5 609.5 M 788.5 0.5 L 788.5 609.5" stroke-opacity="0.23529411764705882" stroke-linecap="round" stroke-linejoin="round" stroke-miterlimit="10"/><path fill="none" stroke="rgb(192,192,192)" paint-order="fill stroke markers" d=" M 0.5 31.5 L 796.5 31.5 M 0.5 31.5 L 796.5 31.5 M 0.5 124.5 L 796.5 124.5 M 0.5 217.5 L 796.5 217.5 M 0.5 404.5 L 796.5 404.5 M 0.5 497.5 L 796.5 497.5 M 0.5 590.5 L 796.5 590.5" stroke-opacity="1" stroke-linecap="round" stroke-linejoin="round" stroke-miterlimit="10"/><path fill="none" stroke="rgb(192,192,192)" paint-order="fill stroke markers" d=" M 0.5 12.5 L 796.5 12.5 M 0.5 12.5 L 796.5 12.5 M 0.5 49.5 L 796.5 49.5 M 0.5 68.5 L 796.5 68.5 M 0.5 87.5 L 796.5 87.5 M 0.5 105.5 L 796.5 105.5 M 0.5 143.5 L 796.5 143.5 M 0.5 161.5 L 796.5 161.5 M 0.5 180.5 L 796.5 180.5 M 0.5 199.5 L 796.5 199.5 M 0.5 236.5 L 796.5 236.5 M 0.5 255.5 L 796.5 255.5 M 0.5 273.5 L 796.5 273.5 M 0.5 292.5 L 796.5 292.5 M 0.5 329.5 L 796.5 329.5 M 0.5 348.5 L 796.5 348.5 M 0.5 366.5 L 796.5 366.5 M 0.5 385.5 L 796.5 385.5 M 0.5 422.5 L 796.5 422.5 M 0.5 441.5 L 796.5 441.5 M 0.5 460.5 L 796.5 460.5 M 0.5 478.5 L 796.5 478.5 M 0.5 516.5 L 796.5 516.5 M 0.5 534.5 L 796.5 534.5 M 0.5 553.5 L 796.5 553.5 M 0.5 572.5 L 796.5 572.5" stroke-opacity="0.23529411764705882" stroke-linecap="round" stroke-linejoin="round" stroke-miterlimit="10"/><path fill="none" stroke="rgb(37,37,37)" paint-order="fill stroke markers" d=" M 397.5 2.5 L 397.5 609.5" stroke-opacity="1" stroke-miterlimit="10"/><path fill="none" stroke="rgb(37,37,37)" paint-order="fill stroke markers" d=" M 397.5 1.5 L 393.5 5.5" stroke-opacity="1" stroke-miterlimit="10"/><path fill="none" stroke="rgb(37,37,37)" paint-order="fill stroke markers" d=" M 397.5 1.5 L 401.5 5.5" stroke-opacity="1" stroke-miterlimit="10"/><path fill="none" stroke="rgb(37,37,37)" paint-order="fill stroke markers" d=" M 0.5 311.5 L 794.5 311.5" stroke-opacity="1" stroke-miterlimit="10"/><path fill="none" stroke="rgb(37,37,37)" paint-order="fill stroke markers" d=" M 795.5 311.5 L 791.5 307.5" stroke-opacity="1" stroke-miterlimit="10"/><path fill="none" stroke="rgb(37,37,37)" paint-order="fill stroke markers" d=" M 795.5 311.5 L 791.5 315.5" stroke-opacity="1" stroke-miterlimit="10"/><text fill="rgb(37,37,37)" stroke="none" font-family="geogebra-sans-serif, sans-serif" font-size="12px" font-style="normal" font-weight="normal" text-decoration="normal" x="19" y="327" text-anchor="start" dominant-baseline="alphabetic" fill-opacity="1">–4</text><text fill="rgb(37,37,37)" stroke="none" font-family="geogebra-sans-serif, sans-serif" font-size="12px" font-style="normal" font-weight="normal" text-decoration="normal" x="112" y="327" text-anchor="start" dominant-baseline="alphabetic" fill-opacity="1">–3</text><text fill="rgb(37,37,37)" stroke="none" font-family="geogebra-sans-serif, sans-serif" font-size="12px" font-style="normal" font-weight="normal" text-decoration="normal" x="205" y="327" text-anchor="start" dominant-baseline="alphabetic" fill-opacity="1">–2</text><text fill="rgb(37,37,37)" stroke="none" font-family="geogebra-sans-serif, sans-serif" font-size="12px" font-style="normal" font-weight="normal" text-decoration="normal" x="298" y="327" text-anchor="start" dominant-baseline="alphabetic" fill-opacity="1">–1</text><text fill="rgb(37,37,37)" stroke="none" font-family="geogebra-sans-serif, sans-serif" font-size="12px" font-style="normal" font-weight="normal" text-decoration="normal" x="488" y="327" text-anchor="start" dominant-baseline="alphabetic" fill-opacity="1">1</text><text fill="rgb(37,37,37)" stroke="none" font-family="geogebra-sans-serif, sans-serif" font-size="12px" font-style="normal" font-weight="normal" text-decoration="normal" x="581" y="327" text-anchor="start" dominant-baseline="alphabetic" fill-opacity="1">2</text><text fill="rgb(37,37,37)" stroke="none" font-family="geogebra-sans-serif, sans-serif" font-size="12px" font-style="normal" font-weight="normal" text-decoration="normal" x="674" y="327" text-anchor="start" dominant-baseline="alphabetic" fill-opacity="1">3</text><text fill="rgb(37,37,37)" stroke="none" font-family="geogebra-sans-serif, sans-serif" font-size="12px" font-style="normal" font-weight="normal" text-decoration="normal" x="768" y="327" text-anchor="start" dominant-baseline="alphabetic" fill-opacity="1">4</text><text fill="rgb(37,37,37)" stroke="none" font-family="geogebra-sans-serif, sans-serif" font-size="12px" font-style="normal" font-weight="normal" text-decoration="normal" x="376" y="595" text-anchor="start" dominant-baseline="alphabetic" fill-opacity="1">–3</text><text fill="rgb(37,37,37)" stroke="none" font-family="geogebra-sans-serif, sans-serif" font-size="12px" font-style="normal" font-weight="normal" text-decoration="normal" x="376" y="502" text-anchor="start" dominant-baseline="alphabetic" fill-opacity="1">–2</text><text fill="rgb(37,37,37)" stroke="none" font-family="geogebra-sans-serif, sans-serif" font-size="12px" font-style="normal" font-weight="normal" text-decoration="normal" x="376" y="409" text-anchor="start" dominant-baseline="alphabetic" fill-opacity="1">–1</text><text fill="rgb(37,37,37)" stroke="none" font-family="geogebra-sans-serif, sans-serif" font-size="12px" font-style="normal" font-weight="normal" text-decoration="normal" x="383" y="222" text-anchor="start" dominant-baseline="alphabetic" fill-opacity="1">1</text><text fill="rgb(37,37,37)" stroke="none" font-family="geogebra-sans-serif, sans-serif" font-size="12px" font-style="normal" font-weight="normal" text-decoration="normal" x="383" y="129" text-anchor="start" dominant-baseline="alphabetic" fill-opacity="1">2</text><text fill="rgb(37,37,37)" stroke="none" font-family="geogebra-sans-serif, sans-serif" font-size="12px" font-style="normal" font-weight="normal" text-decoration="normal" x="383" y="36" text-anchor="start" dominant-baseline="alphabetic" fill-opacity="1">3</text><text fill="rgb(37,37,37)" stroke="none" font-family="geogebra-sans-serif, sans-serif" font-size="12px" font-style="normal" font-weight="normal" text-decoration="normal" x="383" y="327" text-anchor="start" dominant-baseline="alphabetic" fill-opacity="1">0</text><path fill="none" stroke="rgb(0,103,88)" paint-order="fill stroke markers" d=" M 409.58774491380274 -386.41225508619624 L 411.08586599232876 -311.60242278827155 L 412.62705548745345 -249.72499739815686 L 414.21319769926026 -197.69332833892452 L 415.8462884754389 -153.33065339766472 L 417.52844358958544 -115.05783779026535 L 419.2619078861676 -81.70144994347828 L 421.04906527527095 -52.3713357574934 L 422.8924496707001 -26.380001701949766 L 424.79475697697364 -3.1880462753380243 L 426.7588582444646 17.63367772518228 L 428.7878141276889 36.4308638192129 L 430.88489079987494 53.48509726764672 L 433.05357749786367 69.02805757113393 L 435.2976058955752 83.25210546975495 L 437.62097153231207 96.31828452738858 L 440.0279575547447 108.36244509743278 L 442.52316106937076 119.49998534986784 L 445.11152244656415 129.829560494792 L 447.79835796923976 139.43601301260205 L 450.58939628012956 148.39270830311426 L 453.4908191534898 156.7634119052333 L 456.50930720191667 164.60380993656005 L 459.6520912295405 171.9627494342256 L 462.9270100624791 178.8832570041259 L 466.3425758301729 185.4033806692118 L 469.9080478421446 191.55688971101222 L 473.6335164101681 197.3738596869111 L 477.529998213712 202.88116401746697 L 481.60954510680233 208.10288910049132 L 485.8853686297506 213.06068648035142 L 490.3719829355277 217.7740729332408 L 495.085369388417 222.26068723901784 L 500.04316676827716 226.5365107619661 L 505.2648918513015 230.6160576550564 L 510.77219618185745 234.5125394586003 L 516.5891661577563 238.23800802662385 L 522.7426751995567 241.80348003859547 L 529.2627988646427 245.21904580628933 L 536.183306434543 248.4939646392279 L 543.5422459322085 251.63674866685167 L 551.3826439635353 254.6552367152786 L 559.7533475656544 257.55665958863875 L 568.7100428561666 260.3476978995286 L 578.3164953739767 263.03453342220416 L 588.6460705189008 265.6228947993976 L 599.783610771336 268.1180983140236 L 611.8277713413802 270.52508433645625 L 624.8939503990139 272.8484499731931 L 639.1179982976349 275.0924783709046 L 654.6609586011223 277.2611650688933 L 671.7151920495561 279.3582417410794 L 690.5123781435867 281.3871976243037 L 711.3341021441071 283.35129889179467 L 734.5260575707189 285.25360619806816 L 760.5173916262627 287.0969905934973 L 789.8475058122476 288.88414798260067 L 823.2038936590347 290.6176122791828 L 861.4767092664342 292.2997673933294 L 905.8393842076941 293.932858169508 L 957.8710532669267 295.51900038131475 L 1019.7484786570415 297.06018987643944 L 1094.5583109549661 298.5583109549656" stroke-opacity="0.8" stroke-linecap="round" stroke-linejoin="round" stroke-miterlimit="10" stroke-width="2.5"/><path fill="none" stroke="rgb(0,103,88)" paint-order="fill stroke markers" d=" M -300.3200280566615 323.49551788426606 L -225.5101957587367 324.9936389627922 L -163.6327703686219 326.5348284579169 L -111.60110130938938 328.12097066972365 L -67.23842636812947 329.75406144590227 L -28.965610760729987 331.4362165600488 L 4.390777086057142 333.169680856631 L 33.72089127204214 334.95683824573433 L 59.712225327585884 336.8002226411635 L 82.90418075419768 338.702529947437 L 103.72590475471804 340.6666312149279 L 122.52309084874867 342.69558709815226 L 139.57732429718254 344.7926637703383 L 155.12028460066983 346.96135046832705 L 169.34433249929086 349.20537886603853 L 182.41051155692455 351.5287445027754 L 194.45467212696877 353.93573052520804 L 205.59221237940386 356.430934039834 L 215.92178752432807 359.0192954170275 L 225.52824004213812 361.70613093970303 L 234.48493533265037 364.4971692505929 L 242.85563893476944 367.39859212395305 L 250.6960369660962 370.41708017237994 L 258.05497646376176 373.55986420000374 L 264.9754840336621 376.8347830329423 L 271.495607698748 380.2503488006362 L 277.64911674054844 383.8158208126078 L 283.4660867164473 387.5412893806314 L 288.97339104700325 391.43777118417523 L 294.1951161300276 395.51731807726554 L 299.15291350988775 399.7931416002138 L 303.8662999627771 404.27975590599084 L 308.3529142685542 408.9931423588802 L 312.62873779150243 413.9509397387403 L 316.70828468459274 419.17266482176467 L 320.60476648813665 424.67996915232055 L 324.3302350561602 430.4969391282194 L 327.89570706813186 436.65044817001984 L 331.31127283582566 443.17057183510576 L 334.5861916687643 450.09107940500604 L 337.7289756963881 457.45001890267156 L 340.747463744815 465.29041693399836 L 343.6488866181752 473.6611205361174 L 346.439924929065 482.61781582662957 L 349.1267604517406 492.2242683444397 L 351.715121828934 502.55384348936377 L 354.21032534356004 513.6913837417989 L 356.6173113659927 525.7355443118431 L 358.94067700272956 538.8017233694767 L 361.1847054004411 553.0257712680977 L 363.3533920984298 568.568731571585 L 365.4504687706159 585.6229650200187 L 367.47942465384017 604.4201511140493 L 369.4435259213311 625.2418751145697 L 371.34583322760466 648.4338305411814 L 373.1892176230338 674.425164596725 L 374.97637501213717 703.7552787827099 L 376.7098393087193 737.111666629497 L 378.3919944228659 775.3844822368964 L 380.0250851990445 819.7471571781562 L 381.6112274108513 871.7788262373886 L 383.152416905976 933.6562516275033 L 384.650537984502 1008.4660839254279" stroke-opacity="0.8" stroke-linecap="round" stroke-linejoin="round" stroke-miterlimit="10" stroke-width="2.5"/><text fill="rgb(0,103,88)" stroke="none" font-family="geogebra-sans-serif, sans-serif" font-size="16px" font-style="normal" font-weight="normal" text-decoration="normal" x="355" y="641" text-anchor="start" dominant-baseline="alphabetic" fill-opacity="1">xy</text><path fill="rgb(255,0,0)" stroke="none" paint-order="stroke fill markers" d=" M 490.37309793403324 217.77295793473516 L 397.1874991861633 310.9585566826049 L 397.1874991778556 311.01360780075197 L 397.1874991778557 311.01360780075197 L 608.4787652053997 269.88333036729057 L 608.4787652053998 269.88333036729057 L 608.4787652053998 269.8830397579762 L 608.4787652054 269.8830397579762 L 608.375 269.8631213540146 L 605.1875 269.2325132629505 L 602 268.58228339458134 L 598.8125 267.91150145924956 L 595.625 267.2191774149395 L 592.4375 266.50425659163113 L 589.25 265.7656143303249 L 586.0625 265.00205007942384 L 582.875 264.2122808832927 L 579.6875 263.3949341887094 L 576.5 262.54853988436406 L 573.3125 261.67152147628076 L 570.125 260.7621862877233 L 566.9375 259.8187145554109 L 563.75 258.8391472742561 L 560.5625 257.82137261977795 L 557.375 256.7631107501617 L 554.1875 255.66189675778145 L 551 254.5150615018631 L 547.8125 253.31971000855523 L 544.625 252.07269707044298 L 541.4375 250.77059961252132 L 538.25 249.40968531341068 L 535.0625 247.98587687609736 L 531.875 246.49471122785846 L 528.6875 244.93129278941814 L 525.5 243.29023978257277 L 522.3125 241.5656223355707 L 519.125 239.7508908862148 L 515.9375 237.8387930607303 L 512.75 235.82127680464487 L 509.5625 233.68937703762288 L 506.375 231.4330824674752 L 503.1875 229.04117838963634 L 499.99999999999994 226.5010602639074 L 496.8125 223.79851152808664 L 493.625 220.91743737992755 L 490.43749999999994 217.83954399941433 L 490.37309793403335 217.77295793473516 Z" fill-opacity="0.28627450980392155"/><path fill="none" stroke="rgb(128,128,128)" paint-order="fill stroke markers" d=" M 490.3719829355276 217.7740729332408 L 397.1191414491524 311.0269144196158" stroke-opacity="0.6980392156862745" stroke-linecap="round" stroke-linejoin="round" stroke-miterlimit="10" stroke-width="2.5"/><path fill="none" stroke="rgb(128,128,128)" paint-order="fill stroke markers" d=" M 608.4787652053998 269.8833303672905 L 397.1191414491524 311.0269144196158" stroke-opacity="0.6980392156862745" stroke-linecap="round" stroke-linejoin="round" stroke-miterlimit="10" stroke-width="2.5"/><path fill="rgb(110,109,115)" stroke="none" paint-order="stroke fill markers" d=" M 402.1191414491524 311.0269144196158 C 402.1191414491524 313.78833816876977 399.88056519830633 316.0269144196158 397.1191414491524 316.0269144196158 C 394.35771769999843 316.0269144196158 392.1191414491524 313.78833816876977 392.1191414491524 311.0269144196158 C 392.1191414491524 308.2654906704619 394.35771769999843 306.0269144196158 397.1191414491524 306.0269144196158 C 399.88056519830633 306.0269144196158 402.1191414491524 308.2654906704619 402.1191414491524 311.0269144196158 Z" fill-opacity="1"/><path fill="none" stroke="rgb(0,0,0)" paint-order="fill stroke markers" d=" M 402.1191414491524 311.0269144196158 C 402.1191414491524 313.78833816876977 399.88056519830633 316.0269144196158 397.1191414491524 316.0269144196158 C 394.35771769999843 316.0269144196158 392.1191414491524 313.78833816876977 392.1191414491524 311.0269144196158 C 392.1191414491524 308.2654906704619 394.35771769999843 306.0269144196158 397.1191414491524 306.0269144196158 C 399.88056519830633 306.0269144196158 402.1191414491524 308.2654906704619 402.1191414491524 311.0269144196158 Z" stroke-opacity="1" stroke-linecap="round" stroke-linejoin="round" stroke-miterlimit="10"/><text fill="rgb(110,109,115)" stroke="none" font-family="geogebra-sans-serif, sans-serif" font-size="16px" font-style="normal" font-weight="normal" text-decoration="normal" x="401" y="301" text-anchor="start" dominant-baseline="alphabetic" fill-opacity="1">O</text><path fill="rgb(110,109,115)" stroke="none" paint-order="stroke fill markers" d=" M 495.3719829355276 217.7740729332408 C 495.3719829355276 220.53549668239478 493.1334066846816 222.7740729332408 490.3719829355276 222.7740729332408 C 487.6105591863737 222.7740729332408 485.3719829355276 220.53549668239478 485.3719829355276 217.7740729332408 C 485.3719829355276 215.01264918408683 487.6105591863737 212.7740729332408 490.3719829355276 212.7740729332408 C 493.1334066846816 212.7740729332408 495.3719829355276 215.01264918408683 495.3719829355276 217.7740729332408 Z" fill-opacity="1"/><path fill="none" stroke="rgb(0,0,0)" paint-order="fill stroke markers" d=" M 495.3719829355276 217.7740729332408 C 495.3719829355276 220.53549668239478 493.1334066846816 222.7740729332408 490.3719829355276 222.7740729332408 C 487.6105591863737 222.7740729332408 485.3719829355276 220.53549668239478 485.3719829355276 217.7740729332408 C 485.3719829355276 215.01264918408683 487.6105591863737 212.7740729332408 490.3719829355276 212.7740729332408 C 493.1334066846816 212.7740729332408 495.3719829355276 215.01264918408683 495.3719829355276 217.7740729332408 Z" stroke-opacity="1" stroke-linecap="round" stroke-linejoin="round" stroke-miterlimit="10"/><text fill="rgb(110,109,115)" stroke="none" font-family="geogebra-sans-serif, sans-serif" font-size="16px" font-style="normal" font-weight="normal" text-decoration="normal" x="494" y="208" text-anchor="start" dominant-baseline="alphabetic" fill-opacity="1">X</text><path fill="rgb(128,128,128)" stroke="none" paint-order="stroke fill markers" d=" M 613.4787652053998 269.8833303672905 C 613.4787652053998 272.64475411644446 611.2401889545538 274.8833303672905 608.4787652053998 274.8833303672905 C 605.7173414562458 274.8833303672905 603.4787652053998 272.64475411644446 603.4787652053998 269.8833303672905 C 603.4787652053998 267.12190661813656 605.7173414562458 264.8833303672905 608.4787652053998 264.8833303672905 C 611.2401889545538 264.8833303672905 613.4787652053998 267.12190661813656 613.4787652053998 269.8833303672905 Z" fill-opacity="1"/><path fill="none" stroke="rgb(0,0,0)" paint-order="fill stroke markers" d=" M 613.4787652053998 269.8833303672905 C 613.4787652053998 272.64475411644446 611.2401889545538 274.8833303672905 608.4787652053998 274.8833303672905 C 605.7173414562458 274.8833303672905 603.4787652053998 272.64475411644446 603.4787652053998 269.8833303672905 C 603.4787652053998 267.12190661813656 605.7173414562458 264.8833303672905 608.4787652053998 264.8833303672905 C 611.2401889545538 264.8833303672905 613.4787652053998 267.12190661813656 613.4787652053998 269.8833303672905 Z" stroke-opacity="1" stroke-linecap="round" stroke-linejoin="round" stroke-miterlimit="10"/><text fill="rgb(128,128,128)" stroke="none" font-family="geogebra-sans-serif, sans-serif" font-size="16px" font-style="normal" font-weight="normal" text-decoration="normal" x="612" y="260" text-anchor="start" dominant-baseline="alphabetic" fill-opacity="1">A</text></g></g></svg>