<svg version="1.1" xmlns="http://www.w3.org/2000/svg" xmlns:xlink="http://www.w3.org/1999/xlink" width="815" height="615"><defs><clipPath id="nmerDuyAQZaT"><path fill="none" stroke="none" d=" M 0 0 L 815 0 L 815 615 L 0 615 L 0 0 Z"/></clipPath></defs><g transform="scale(1,1)" clip-path="url(#nmerDuyAQZaT)"><g><rect fill="rgb(255,255,255)" stroke="none" x="0" y="0" width="815" height="615" fill-opacity="1"/><path fill="none" stroke="rgb(192,192,192)" paint-order="fill stroke markers" d=" M 14.5 0.5 L 14.5 615.5 M 14.5 0.5 L 14.5 615.5 M 110.5 0.5 L 110.5 615.5 M 206.5 0.5 L 206.5 615.5 M 302.5 0.5 L 302.5 615.5 M 495.5 0.5 L 495.5 615.5 M 591.5 0.5 L 591.5 615.5 M 687.5 0.5 L 687.5 615.5 M 783.5 0.5 L 783.5 615.5" stroke-opacity="1" stroke-linecap="round" stroke-linejoin="round" stroke-miterlimit="10"/><path fill="none" stroke="rgb(192,192,192)" paint-order="fill stroke markers" d=" M 33.5 0.5 L 33.5 615.5 M 52.5 0.5 L 52.5 615.5 M 72.5 0.5 L 72.5 615.5 M 91.5 0.5 L 91.5 615.5 M 129.5 0.5 L 129.5 615.5 M 148.5 0.5 L 148.5 615.5 M 168.5 0.5 L 168.5 615.5 M 187.5 0.5 L 187.5 615.5 M 225.5 0.5 L 225.5 615.5 M 245.5 0.5 L 245.5 615.5 M 264.5 0.5 L 264.5 615.5 M 283.5 0.5 L 283.5 615.5 M 321.5 0.5 L 321.5 615.5 M 341.5 0.5 L 341.5 615.5 M 360.5 0.5 L 360.5 615.5 M 379.5 0.5 L 379.5 615.5 M 418.5 0.5 L 418.5 615.5 M 437.5 0.5 L 437.5 615.5 M 456.5 0.5 L 456.5 615.5 M 475.5 0.5 L 475.5 615.5 M 514.5 0.5 L 514.5 615.5 M 533.5 0.5 L 533.5 615.5 M 552.5 0.5 L 552.5 615.5 M 571.5 0.5 L 571.5 615.5 M 610.5 0.5 L 610.5 615.5 M 629.5 0.5 L 629.5 615.5 M 648.5 0.5 L 648.5 615.5 M 668.5 0.5 L 668.5 615.5 M 706.5 0.5 L 706.5 615.5 M 725.5 0.5 L 725.5 615.5 M 744.5 0.5 L 744.5 615.5 M 764.5 0.5 L 764.5 615.5 M 802.5 0.5 L 802.5 615.5" stroke-opacity="0.23529411764705882" stroke-linecap="round" stroke-linejoin="round" stroke-miterlimit="10"/><path fill="none" stroke="rgb(192,192,192)" paint-order="fill stroke markers" d=" M 0.5 22.5 L 815.5 22.5 M 0.5 22.5 L 815.5 22.5 M 0.5 118.5 L 815.5 118.5 M 0.5 214.5 L 815.5 214.5 M 0.5 407.5 L 815.5 407.5 M 0.5 503.5 L 815.5 503.5 M 0.5 599.5 L 815.5 599.5" stroke-opacity="1" stroke-linecap="round" stroke-linejoin="round" stroke-miterlimit="10"/><path fill="none" stroke="rgb(192,192,192)" paint-order="fill stroke markers" d=" M 0.5 3.5 L 815.5 3.5 M 0.5 3.5 L 815.5 3.5 M 0.5 41.5 L 815.5 41.5 M 0.5 61.5 L 815.5 61.5 M 0.5 80.5 L 815.5 80.5 M 0.5 99.5 L 815.5 99.5 M 0.5 138.5 L 815.5 138.5 M 0.5 157.5 L 815.5 157.5 M 0.5 176.5 L 815.5 176.5 M 0.5 195.5 L 815.5 195.5 M 0.5 234.5 L 815.5 234.5 M 0.5 253.5 L 815.5 253.5 M 0.5 272.5 L 815.5 272.5 M 0.5 291.5 L 815.5 291.5 M 0.5 330.5 L 815.5 330.5 M 0.5 349.5 L 815.5 349.5 M 0.5 368.5 L 815.5 368.5 M 0.5 388.5 L 815.5 388.5 M 0.5 426.5 L 815.5 426.5 M 0.5 445.5 L 815.5 445.5 M 0.5 464.5 L 815.5 464.5 M 0.5 484.5 L 815.5 484.5 M 0.5 522.5 L 815.5 522.5 M 0.5 541.5 L 815.5 541.5 M 0.5 561.5 L 815.5 561.5 M 0.5 580.5 L 815.5 580.5" stroke-opacity="0.23529411764705882" stroke-linecap="round" stroke-linejoin="round" stroke-miterlimit="10"/><path fill="none" stroke="rgb(37,37,37)" paint-order="fill stroke markers" d=" M 398.5 2.5 L 398.5 615.5" stroke-opacity="1" stroke-miterlimit="10"/><path fill="none" stroke="rgb(37,37,37)" paint-order="fill stroke markers" d=" M 398.5 1.5 L 394.5 5.5" stroke-opacity="1" stroke-miterlimit="10"/><path fill="none" stroke="rgb(37,37,37)" paint-order="fill stroke markers" d=" M 398.5 1.5 L 402.5 5.5" stroke-opacity="1" stroke-miterlimit="10"/><path fill="none" stroke="rgb(37,37,37)" paint-order="fill stroke markers" d=" M 0.5 311.5 L 813.5 311.5" stroke-opacity="1" stroke-miterlimit="10"/><path fill="none" stroke="rgb(37,37,37)" paint-order="fill stroke markers" d=" M 814.5 311.5 L 810.5 307.5" stroke-opacity="1" stroke-miterlimit="10"/><path fill="none" stroke="rgb(37,37,37)" paint-order="fill stroke markers" d=" M 814.5 311.5 L 810.5 315.5" stroke-opacity="1" stroke-miterlimit="10"/><text fill="rgb(37,37,37)" stroke="none" font-family="geogebra-sans-serif, sans-serif" font-size="12px" font-style="normal" font-weight="normal" text-decoration="normal" x="9" y="327" text-anchor="start" dominant-baseline="alphabetic" fill-opacity="1">–2</text><text fill="rgb(37,37,37)" stroke="none" font-family="geogebra-sans-serif, sans-serif" font-size="12px" font-style="normal" font-weight="normal" text-decoration="normal" x="99" y="327" text-anchor="start" dominant-baseline="alphabetic" fill-opacity="1">–1.5</text><text fill="rgb(37,37,37)" stroke="none" font-family="geogebra-sans-serif, sans-serif" font-size="12px" font-style="normal" font-weight="normal" text-decoration="normal" x="201" y="327" text-anchor="start" dominant-baseline="alphabetic" fill-opacity="1">–1</text><text fill="rgb(37,37,37)" stroke="none" font-family="geogebra-sans-serif, sans-serif" font-size="12px" font-style="normal" font-weight="normal" text-decoration="normal" x="291" y="327" text-anchor="start" dominant-baseline="alphabetic" fill-opacity="1">–0.5</text><text fill="rgb(37,37,37)" stroke="none" font-family="geogebra-sans-serif, sans-serif" font-size="12px" font-style="normal" font-weight="normal" text-decoration="normal" x="487" y="327" text-anchor="start" dominant-baseline="alphabetic" fill-opacity="1">0.5</text><text fill="rgb(37,37,37)" stroke="none" font-family="geogebra-sans-serif, sans-serif" font-size="12px" font-style="normal" font-weight="normal" text-decoration="normal" x="589" y="327" text-anchor="start" dominant-baseline="alphabetic" fill-opacity="1">1</text><text fill="rgb(37,37,37)" stroke="none" font-family="geogebra-sans-serif, sans-serif" font-size="12px" font-style="normal" font-weight="normal" text-decoration="normal" x="679" y="327" text-anchor="start" dominant-baseline="alphabetic" fill-opacity="1">1.5</text><text fill="rgb(37,37,37)" stroke="none" font-family="geogebra-sans-serif, sans-serif" font-size="12px" font-style="normal" font-weight="normal" text-decoration="normal" x="781" y="327" text-anchor="start" dominant-baseline="alphabetic" fill-opacity="1">2</text><text fill="rgb(37,37,37)" stroke="none" font-family="geogebra-sans-serif, sans-serif" font-size="12px" font-style="normal" font-weight="normal" text-decoration="normal" x="368" y="604" text-anchor="start" dominant-baseline="alphabetic" fill-opacity="1">–1.5</text><text fill="rgb(37,37,37)" stroke="none" font-family="geogebra-sans-serif, sans-serif" font-size="12px" font-style="normal" font-weight="normal" text-decoration="normal" x="377" y="508" text-anchor="start" dominant-baseline="alphabetic" fill-opacity="1">–1</text><text fill="rgb(37,37,37)" stroke="none" font-family="geogebra-sans-serif, sans-serif" font-size="12px" font-style="normal" font-weight="normal" text-decoration="normal" x="368" y="412" text-anchor="start" dominant-baseline="alphabetic" fill-opacity="1">–0.5</text><text fill="rgb(37,37,37)" stroke="none" font-family="geogebra-sans-serif, sans-serif" font-size="12px" font-style="normal" font-weight="normal" text-decoration="normal" x="374" y="219" text-anchor="start" dominant-baseline="alphabetic" fill-opacity="1">0.5</text><text fill="rgb(37,37,37)" stroke="none" font-family="geogebra-sans-serif, sans-serif" font-size="12px" font-style="normal" font-weight="normal" text-decoration="normal" x="384" y="123" text-anchor="start" dominant-baseline="alphabetic" fill-opacity="1">1</text><text fill="rgb(37,37,37)" stroke="none" font-family="geogebra-sans-serif, sans-serif" font-size="12px" font-style="normal" font-weight="normal" text-decoration="normal" x="374" y="27" text-anchor="start" dominant-baseline="alphabetic" fill-opacity="1">1.5</text><text fill="rgb(37,37,37)" stroke="none" font-family="geogebra-sans-serif, sans-serif" font-size="12px" font-style="normal" font-weight="normal" text-decoration="normal" x="384" y="327" text-anchor="start" dominant-baseline="alphabetic" fill-opacity="1">0</text><path fill="none" stroke="rgb(0,103,88)" paint-order="fill stroke markers" d=" M 206.83015270970537 311.34375000000006 L 208.2963935725215 309.42187500000006 L 208.84375 308.87451857252154 L 210.2182685725215 307.50000000000006 L 211.390625 306.32764357252154 L 212.1401435725215 305.578125 L 213.9375 303.78076857252154 L 215.9838935725215 301.734375 L 216.484375 301.23389357252154 L 217.90576857252154 299.8125 L 219.03125000000003 298.68701857252154 L 219.8276435725215 297.890625 L 221.578125 296.14014357252154 L 223.67139357252154 294.046875 L 225.5932685725215 292.125 L 226.67187500000003 291.04639357252154 L 227.5151435725215 290.20312500000006 L 229.21875000000003 288.49951857252154 L 231.3588935725215 286.35937500000006 L 233.28076857252148 284.43750000000006 L 234.31250000000003 283.40576857252154 L 235.2026435725215 282.51562500000006 L 236.85937500000003 280.85889357252154 L 239.04639357252154 278.67187500000006 L 240.9682685725215 276.75000000000006 L 241.95312500000003 275.76514357252154 L 242.8901435725215 274.82812500000006 L 244.50000000000003 273.21826857252154 L 246.73389357252148 270.98437500000006 L 248.6557685725215 269.06250000000006 L 249.59375 268.12451857252154 L 250.57764357252148 267.14062500000006 L 252.14062499999997 265.5776435725216 L 254.4213935725215 263.29687500000006 L 256.3432685725215 261.37500000000006 L 257.234375 260.48389357252154 L 258.26514357252154 259.453125 L 259.78125 257.93701857252154 L 262.10889357252154 255.60937500000003 L 264.03076857252154 253.68750000000003 L 264.875 252.84326857252154 L 265.95264357252154 251.76562500000003 L 267.421875 250.29639357252154 L 269.79639357252154 247.92187500000003 L 271.71826857252154 246 L 272.515625 245.20264357252154 L 273.64014357252154 244.07812500000006 L 275.0625 242.65576857252154 L 277.4838935725215 240.23437500000006 L 279.40576857252154 238.31250000000006 L 280.15625 237.56201857252154 L 281.3276435725215 236.39062500000006 L 282.703125 235.01514357252154 L 283.2495185725215 234.46875000000003 L 285.17139357252154 232.54687500000006 L 287.0932685725215 230.62500000000006 L 287.796875 229.92139357252154 L 289.0151435725215 228.70312500000006 L 290.34375 227.37451857252154 L 290.9370185725215 226.78125000000006 L 292.8588935725215 224.85937500000006 L 294.7807685725215 222.93750000000006 L 295.4375 222.2807685725215 L 296.7026435725215 221.01562500000006 L 297.984375 219.73389357252148 L 298.6245185725215 219.09375000000006 L 300.53125 217.18701857252154 L 302.4682685725215 215.25000000000006 L 303.078125 214.64014357252154 L 304.3901435725215 213.32812500000006 L 305.625 212.09326857252154 L 306.3120185725215 211.40625000000006 L 308.171875 209.54639357252154 L 310.1557685725215 207.56250000000006 L 310.71875 206.99951857252157 L 312.0776435725215 205.64062500000006 L 313.265625 204.45264357252154 L 313.9995185725215 203.71875000000006 L 315.8125 201.90576857252154 L 317.84326857252154 199.87500000000006 L 318.359375 199.35889357252157 L 319.76514357252154 197.953125 L 320.90625 196.8120185725216 L 321.68701857252154 196.03125 L 323.453125 194.26514357252154 L 325.53076857252154 192.1875 L 327.45264357252154 190.265625 L 328.546875 189.17139357252154 L 329.37451857252154 188.34375000000003 L 331.09375 186.62451857252154 L 333.21826857252154 184.5 L 335.1401435725215 182.57812500000006 L 336.1875 181.53076857252157 L 337.0620185725215 180.65625000000009 L 338.734375 178.98389357252154 L 340.9057685725214 176.81250000000009 L 342.8276435725214 174.89062500000009 L 343.828125 173.89014357252157 L 344.7495185725215 172.96875000000009 L 346.375 171.34326857252154 L 348.5932685725215 169.12500000000009 L 350.5151435725215 167.20312500000006 L 351.46875 166.24951857252157 L 352.43701857252154 165.28125000000006 L 354.015625 163.70264357252154 L 356.2807685725215 161.43750000000006 L 358.2026435725215 159.51562500000006 L 359.109375 158.60889357252154 L 360.12451857252154 157.59375000000006 L 361.65625 156.06201857252154 L 363.9682685725215 153.75000000000006 L 365.89014357252154 151.82812500000003 L 366.75 150.96826857252154 L 367.81201857252154 149.90625000000003 L 369.296875 148.42139357252154 L 371.65576857252154 146.06250000000003 L 373.5776435725215 144.14062500000003 L 374.390625 143.32764357252157 L 375.49951857252154 142.21875000000003 L 376.9375 140.78076857252154 L 379.34326857252154 138.37500000000003 L 381.2651435725215 136.45312500000009 L 382.03125 135.68701857252157 L 383.1870185725215 134.53125000000009 L 384.578125 133.14014357252154 L 385.1088935725215 132.60937500000006 L 387.0307685725215 130.68750000000009 L 388.9526435725214 128.76562500000009 L 389.67187500000006 128.04639357252148 L 390.8745185725215 126.84375000000009 L 392.21875000000006 125.49951857252151 L 392.7963935725215 124.92187500000009 L 394.7182685725215 123.00000000000009 L 396.6401435725215 121.07812500000006 L 397.31250000000006 120.40576857252148 L 399.85937500000006 119.84078674955896 L 401.09671325044116 121.07812500000006 L 402.40625000000006 122.38766174955893 L 403.01858825044116 123.00000000000009 L 404.9404632504412 124.92187500000009 L 406.86233825044116 126.84375000000009 L 407.50000000000006 127.48141174955896 L 410.046875 130.02828674955893 L 412.59375 132.5751617495589 L 414.54983825044116 134.53125000000009 L 415.140625 135.12203674955893 L 416.47171325044116 136.45312500000009 L 417.6875 137.66891174955893 L 420.234375 140.2157867495589 L 422.2373382504411 142.21875000000003 L 422.78125 142.76266174955893 L 424.1592132504411 144.14062500000003 L 425.328125 145.30953674955893 L 426.0810882504411 146.06250000000003 L 427.875 147.85641174955893 L 429.9248382504411 149.90625000000003 L 431.8467132504411 151.82812500000003 L 432.96875 152.95016174955887 L 435.515625 155.49703674955887 L 437.61233825044116 157.59375000000006 L 439.53421325044116 159.51562500000006 L 440.609375 160.5907867495589 L 443.15625 163.13766174955887 L 445.29983825044116 165.28125000000006 L 447.22171325044116 167.20312500000006 L 448.25 168.23141174955893 L 450.79687500000006 170.77828674955893 L 452.98733825044116 172.96875000000009 L 455.89062500000006 175.87203674955893 L 458.43750000000006 178.41891174955896 L 460.67483825044116 180.65625000000009 L 462.59671325044116 182.57812500000006 L 463.53125 183.51266174955896 L 466.078125 186.05953674955893 L 468.3623382504411 188.34375000000003 L 471.171875 191.1532867495589 L 473.71875 193.70016174955893 L 476.0498382504411 196.03125 L 477.9717132504411 197.953125 L 478.8125 198.7939117495589 L 481.359375 201.3407867495589 L 483.7373382504411 203.71875000000006 L 485.65921325044116 205.64062500000006 L 486.453125 206.4345367495589 L 487.5810882504411 207.56250000000006 L 489 208.98141174955893 L 491.42483825044116 211.40625000000006 L 493.34671325044116 213.32812500000006 L 494.09375 214.07516174955887 L 496.640625 216.62203674955887 L 497.19046325044116 217.17187500000006 L 499.1123382504412 219.09375000000006 L 501.03421325044116 221.01562500000006 L 501.734375 221.7157867495589 L 504.28125 224.2626617495589 L 504.87796325044116 224.85937500000006 L 506.79983825044116 226.78125000000006 L 508.72171325044116 228.70312500000006 L 509.375 229.3564117495589 L 511.92187500000006 231.90328674955896 L 512.5654632504411 232.54687500000006 L 514.46875 234.45016174955893 L 516.4092132504411 236.39062500000006 L 517.015625 236.99703674955896 L 519.5625 239.54391174955893 L 522.109375 242.09078674955896 L 524.0967132504411 244.07812500000006 L 524.65625 244.63766174955896 L 527.203125 247.18453674955896 L 527.9404632504411 247.92187500000003 L 529.75 249.73141174955896 L 531.7842132504411 251.76562500000003 L 532.296875 252.2782867495589 L 534.84375 254.8251617495589 L 535.6279632504411 255.60937500000003 L 537.390625 257.3720367495589 L 539.4717132504411 259.453125 L 542.484375 262.4657867495589 L 543.3154632504411 263.29687500000006 L 545.03125 265.0126617495589 L 547.1592132504411 267.14062500000006 L 549.0810882504411 269.06250000000006 L 550.125 270.1064117495589 L 552.671875 272.6532867495589 L 554.8467132504412 274.82812500000006 L 557.765625 277.7470367495589 L 558.6904632504411 278.67187500000006 L 560.3125 280.2939117495589 L 562.5342132504411 282.51562500000006 L 565.40625 285.3876617495589 L 566.3779632504411 286.35937500000006 L 567.953125 287.9345367495589 L 570.2217132504411 290.20312500000006 L 572.1435882504411 292.125 L 573.046875 293.02828674955896 L 574.0654632504411 294.046875 L 575.59375 295.5751617495589 L 577.9092132504411 297.890625 L 580.6875 300.66891174955896 L 583.234375 303.21578674955896 L 585.5967132504411 305.578125 L 587.5185882504411 307.50000000000006 L 588.328125 308.30953674955896 L 589.4404632504411 309.42187500000006 M 206.83015270970537 311.34375000000006 L 208.75202770970537 313.26562500000006 L 211.390625 315.9042222902947 L 212.59577770970537 317.10937500000006 L 213.9375 318.4510972902947 L 216.43952770970537 320.95312500000006 L 219.03125 323.5448472902947 L 220.28327770970535 324.79687500000006 L 221.578125 326.0917222902947 L 222.20515270970535 326.71875000000006 L 224.125 328.6385972902947 L 226.04890270970535 330.5625 L 226.67187500000003 331.1854722902947 L 227.97077770970537 332.484375 L 229.21875 333.7323472902947 L 229.89265270970535 334.40625000000006 L 231.765625 336.2792222902947 L 233.73640270970537 338.25000000000006 L 234.31250000000003 338.8260972902947 L 235.65827770970537 340.17187500000006 L 236.85937500000003 341.3729722902947 L 239.40625000000003 343.9198472902947 L 241.42390270970537 345.93750000000006 L 241.95312500000003 346.4667222902947 L 243.3457777097054 347.85937500000006 L 244.50000000000003 349.0135972902947 L 247.046875 351.5604722902947 L 249.11140270970537 353.62500000000006 L 251.03327770970537 355.54687500000006 L 252.14062499999997 356.6542222902947 L 254.6875 359.2010972902947 L 256.7989027097054 361.31250000000006 L 258.7207777097054 363.23437500000006 L 259.78125 364.2948472902947 L 260.6426527097054 365.15625000000006 L 262.328125 366.8417222902947 L 264.4864027097053 369 L 267.421875 371.9354722902947 L 269.96875 374.4823472902947 L 272.1739027097053 376.6875 L 274.0957777097054 378.609375 L 275.0625 379.5760972902947 L 277.609375 382.1229722902947 L 279.8614027097054 384.37500000000006 L 281.7832777097054 386.29687500000006 L 282.703125 387.2167222902947 L 283.7051527097054 388.21875000000006 L 285.25 389.7635972902947 L 287.5489027097054 392.06250000000006 L 289.4707777097054 393.98437500000006 L 290.34375 394.8573472902947 L 291.3926527097054 395.90625000000006 L 292.890625 397.4042222902947 L 295.2364027097053 399.75000000000006 L 297.1582777097054 401.67187500000006 L 297.984375 402.4979722902947 L 300.53125 405.0448472902947 L 302.9239027097053 407.43750000000006 L 304.8457777097053 409.35937500000006 L 305.625 410.1385972902947 L 308.171875 412.6854722902947 L 308.6895277097054 413.20312500000006 L 310.6114027097054 415.12500000000006 L 312.5332777097054 417.04687500000006 L 313.265625 417.7792222902947 L 315.8125 420.3260972902947 L 316.3770277097054 420.89062500000006 L 318.2989027097053 422.81250000000006 L 320.2207777097054 424.73437500000006 L 320.90625 425.4198472902947 L 322.1426527097053 426.65625000000006 L 323.453125 427.9667222902947 L 324.0645277097054 428.57812500000006 L 325.9864027097053 430.50000000000006 L 328.546875 433.0604722902947 L 331.09375 435.6073472902947 L 333.640625 438.1542222902947 L 335.5957777097054 440.10937500000006 L 336.1875 440.7010972902947 L 338.734375 443.2479722902947 L 339.4395277097054 443.95312500000006 L 341.28125 445.7948472902947 L 343.2832777097054 447.796875 L 343.828125 448.3417222902947 L 345.2051527097054 449.71875000000006 L 346.375 450.8885972902947 L 348.921875 453.4354722902947 L 350.9707777097053 455.484375 L 352.8926527097053 457.40625000000006 L 354.015625 458.5292222902947 L 354.8145277097054 459.328125 L 356.5625 461.0760972902947 L 358.6582777097054 463.17187500000006 L 361.65625 466.1698472902947 L 364.203125 468.7167222902947 L 366.3457777097054 470.859375 L 369.296875 473.8104722902947 L 370.1895277097054 474.70312500000006 L 371.84375 476.3573472902947 L 374.0332777097054 478.54687500000006 L 376.9375 481.4510972902947 L 377.8770277097054 482.39062500000006 L 379.484375 483.9979722902947 L 381.7207777097054 486.234375 L 383.6426527097053 488.15625000000006 L 384.578125 489.0917222902947 L 385.5645277097054 490.07812500000006 L 387.125 491.6385972902947 L 389.4082777097054 493.9218750000001 L 392.21875000000006 496.73234729029474 L 394.76562500000006 499.2792222902947 L 397.0957777097054 501.6093750000001 L 399.85937500000006 502.3910791132573 L 400.6410791132572 501.6093750000001 L 402.40625000000006 499.8442041132573 L 404.4848291132572 497.7656250000001 L 406.40670411325726 495.8437500000001 L 407.50000000000006 494.7504541132573 L 408.32857911325726 493.9218750000001 L 410.046875 492.2035791132573 L 412.17232911325726 490.07812500000006 L 414.09420411325726 488.15625000000006 L 415.140625 487.1098291132573 L 416.01607911325726 486.234375 L 417.6875 484.5629541132573 L 419.85982911325726 482.39062500000006 L 421.78170411325726 480.46875000000006 L 422.78125 479.4692041132573 L 423.70357911325726 478.54687500000006 L 425.328125 476.9223291132573 L 427.54732911325726 474.70312500000006 L 429.46920411325726 472.78125000000006 L 430.421875 471.8285791132573 L 431.39107911325726 470.859375 L 432.96875 469.2817041132573 L 435.23482911325726 467.01562500000006 L 437.15670411325726 465.09375000000006 L 438.0625 464.1879541132573 L 439.07857911325726 463.17187500000006 L 440.609375 461.6410791132574 L 442.9223291132573 459.328125 L 444.8442041132573 457.40625000000006 L 445.703125 456.5473291132573 L 446.76607911325726 455.484375 L 448.25 454.0004541132573 L 450.60982911325726 451.64062500000006 L 452.53170411325726 449.71875000000006 L 453.34375000000006 448.90670411325726 L 454.4535791132573 447.796875 L 455.89062500000006 446.3598291132573 L 458.29732911325726 443.95312500000006 L 460.2192041132573 442.03125000000006 L 460.984375 441.2660791132573 L 462.14107911325726 440.10937500000006 L 463.53125000000006 438.71920411325726 L 464.06295411325726 438.18750000000006 L 465.98482911325726 436.26562500000006 L 467.90670411325726 434.34375000000006 L 468.625 433.6254541132573 L 469.82857911325726 432.42187500000006 L 471.171875 431.0785791132573 L 471.75045411325726 430.50000000000006 L 473.67232911325726 428.57812500000006 L 475.59420411325726 426.65625000000006 L 476.265625 425.9848291132573 L 477.51607911325726 424.73437500000006 L 478.8125 423.4379541132573 L 479.43795411325726 422.81250000000006 L 481.359375 420.8910791132573 L 483.28170411325726 418.96875000000006 L 483.90625 418.3442041132573 L 485.20357911325726 417.04687500000006 L 486.453125 415.7973291132573 L 487.12545411325726 415.12500000000006 L 489 413.2504541132573 L 490.9692041132573 411.28125000000006 L 491.546875 410.7035791132573 L 492.89107911325726 409.35937500000006 L 494.09375 408.1567041132573 L 494.8129541132573 407.43750000000006 L 496.640625 405.6098291132573 L 498.65670411325726 403.59375000000006 L 499.1875 403.0629541132573 L 500.57857911325726 401.67187500000006 L 501.734375 400.5160791132573 L 502.50045411325726 399.75000000000006 L 504.28125 397.9692041132573 L 506.34420411325726 395.90625000000006 L 508.26607911325726 393.98437500000006 L 509.375 392.8754541132573 L 510.18795411325726 392.06250000000006 L 511.92187500000006 390.32857911325726 L 514.0317041132573 388.21875000000006 L 515.9535791132573 386.29687500000006 L 517.015625 385.23482911325726 L 517.8754541132573 384.37500000000006 L 519.5625 382.6879541132573 L 521.7192041132573 380.53125 L 523.6410791132573 378.609375 L 524.65625 377.5942041132573 L 525.5629541132573 376.6875 L 527.203125 375.04732911325726 L 529.4067041132573 372.84375 L 531.3285791132573 370.921875 L 532.296875 369.9535791132573 L 533.2504541132573 369 L 534.84375 367.4067041132573 L 537.0942041132573 365.15625000000006 L 539.0160791132573 363.23437500000006 L 539.9375 362.3129541132573 L 540.9379541132573 361.31250000000006 L 542.484375 359.7660791132573 L 544.7817041132573 357.46875000000006 L 546.7035791132573 355.54687500000006 L 547.578125 354.6723291132573 L 548.6254541132573 353.62500000000006 L 550.125 352.1254541132573 L 552.4692041132572 349.78125000000006 L 554.3910791132573 347.85937500000006 L 555.21875 347.0317041132574 L 556.3129541132573 345.93750000000006 L 557.765625 344.4848291132573 L 560.1567041132573 342.09375000000006 L 562.0785791132573 340.17187500000006 L 562.859375 339.3910791132573 L 564.0004541132573 338.25000000000006 L 565.40625 336.8442041132573 L 565.9223291132573 336.32812500000006 L 567.8442041132573 334.40625000000006 L 569.7660791132573 332.484375 L 570.5 331.7504541132574 L 571.6879541132573 330.5625 L 573.046875 329.20357911325726 L 573.6098291132573 328.64062500000006 L 575.5317041132573 326.71875000000006 L 577.4535791132573 324.79687500000006 L 578.140625 324.10982911325726 L 579.3754541132573 322.87500000000006 L 580.6875 321.5629541132573 L 581.2973291132573 320.95312500000006 L 583.2192041132573 319.03125000000006 L 585.1410791132573 317.10937500000006 L 585.78125 316.46920411325726 L 587.0629541132573 315.18750000000006 L 588.328125 313.92232911325726 L 588.9848291132573 313.26562500000006 L 590.875 311.37545411325726" stroke-opacity="0.8" stroke-linecap="round" stroke-linejoin="round" stroke-miterlimit="10" stroke-width="2.5"/><path fill="none" stroke="rgb(128,128,128)" paint-order="fill stroke markers" d=" M 520.3951839653008 240.9524278986686 L 398.8684284114813 311.1159329314081" stroke-opacity="0.6980392156862745" stroke-linecap="round" stroke-linejoin="round" stroke-miterlimit="10" stroke-width="2.5"/><path fill="none" stroke="rgb(128,128,128)" paint-order="fill stroke markers" d=" M 591.1345211818492 311.1159329314081 L 398.8684284114813 311.1159329314081" stroke-opacity="0.6980392156862745" stroke-linecap="round" stroke-linejoin="round" stroke-miterlimit="10" stroke-width="2.5"/><text fill="rgb(255,0,0)" stroke="none" font-family="geogebra-sans-serif, sans-serif" font-size="16px" font-style="normal" font-weight="normal" text-decoration="normal" x="544" y="287" text-anchor="start" dominant-baseline="alphabetic" fill-opacity="1">θ</text><path fill="none" stroke="rgb(255,0,0)" paint-order="fill stroke markers" d=" M 520.3951839653008 240.9524278986686 L 591.1345211818492 311.1159329314081" stroke-opacity="0.6980392156862745" stroke-linecap="round" stroke-linejoin="round" stroke-miterlimit="10" stroke-width="2.5"/><path fill="rgb(128,128,128)" stroke="none" paint-order="stroke fill markers" d=" M 525.3951839653008 240.9524278986686 C 525.3951839653008 243.71385164782257 523.1566077144548 245.9524278986686 520.3951839653008 245.9524278986686 C 517.6337602161468 245.9524278986686 515.3951839653008 243.71385164782257 515.3951839653008 240.9524278986686 C 515.3951839653008 238.1910041495146 517.6337602161468 235.9524278986686 520.3951839653008 235.9524278986686 C 523.1566077144548 235.9524278986686 525.3951839653008 238.1910041495146 525.3951839653008 240.9524278986686 Z" fill-opacity="1"/><path fill="none" stroke="rgb(0,0,0)" paint-order="fill stroke markers" d=" M 525.3951839653008 240.9524278986686 C 525.3951839653008 243.71385164782257 523.1566077144548 245.9524278986686 520.3951839653008 245.9524278986686 C 517.6337602161468 245.9524278986686 515.3951839653008 243.71385164782257 515.3951839653008 240.9524278986686 C 515.3951839653008 238.1910041495146 517.6337602161468 235.9524278986686 520.3951839653008 235.9524278986686 C 523.1566077144548 235.9524278986686 525.3951839653008 238.1910041495146 525.3951839653008 240.9524278986686 Z" stroke-opacity="1" stroke-linecap="round" stroke-linejoin="round" stroke-miterlimit="10"/><text fill="rgb(128,128,128)" stroke="none" font-family="geogebra-sans-serif, sans-serif" font-size="16px" font-style="normal" font-weight="normal" text-decoration="normal" x="524" y="231" text-anchor="start" dominant-baseline="alphabetic" fill-opacity="1">A</text><path fill="rgb(110,109,115)" stroke="none" paint-order="stroke fill markers" d=" M 403.8684284114813 311.1159329314081 C 403.8684284114813 313.87735668056206 401.62985216063527 316.1159329314081 398.8684284114813 316.1159329314081 C 396.10700466232737 316.1159329314081 393.8684284114813 313.87735668056206 393.8684284114813 311.1159329314081 C 393.8684284114813 308.35450918225416 396.10700466232737 306.1159329314081 398.8684284114813 306.1159329314081 C 401.62985216063527 306.1159329314081 403.8684284114813 308.35450918225416 403.8684284114813 311.1159329314081 Z" fill-opacity="1"/><path fill="none" stroke="rgb(0,0,0)" paint-order="fill stroke markers" d=" M 403.8684284114813 311.1159329314081 C 403.8684284114813 313.87735668056206 401.62985216063527 316.1159329314081 398.8684284114813 316.1159329314081 C 396.10700466232737 316.1159329314081 393.8684284114813 313.87735668056206 393.8684284114813 311.1159329314081 C 393.8684284114813 308.35450918225416 396.10700466232737 306.1159329314081 398.8684284114813 306.1159329314081 C 401.62985216063527 306.1159329314081 403.8684284114813 308.35450918225416 403.8684284114813 311.1159329314081 Z" stroke-opacity="1" stroke-linecap="round" stroke-linejoin="round" stroke-miterlimit="10"/><text fill="rgb(110,109,115)" stroke="none" font-family="geogebra-sans-serif, sans-serif" font-size="16px" font-style="normal" font-weight="normal" text-decoration="normal" x="403" y="301" text-anchor="start" dominant-baseline="alphabetic" fill-opacity="1">O</text><path fill="rgb(128,128,128)" stroke="none" paint-order="stroke fill markers" d=" M 596.1345211818492 311.1159329314081 C 596.1345211818492 313.87735668056206 593.8959449310032 316.1159329314081 591.1345211818492 316.1159329314081 C 588.3730974326952 316.1159329314081 586.1345211818492 313.87735668056206 586.1345211818492 311.1159329314081 C 586.1345211818492 308.35450918225416 588.3730974326952 306.1159329314081 591.1345211818492 306.1159329314081 C 593.8959449310032 306.1159329314081 596.1345211818492 308.35450918225416 596.1345211818492 311.1159329314081 Z" fill-opacity="1"/><path fill="none" stroke="rgb(0,0,0)" paint-order="fill stroke markers" d=" M 596.1345211818492 311.1159329314081 C 596.1345211818492 313.87735668056206 593.8959449310032 316.1159329314081 591.1345211818492 316.1159329314081 C 588.3730974326952 316.1159329314081 586.1345211818492 313.87735668056206 586.1345211818492 311.1159329314081 C 586.1345211818492 308.35450918225416 588.3730974326952 306.1159329314081 591.1345211818492 306.1159329314081 C 593.8959449310032 306.1159329314081 596.1345211818492 308.35450918225416 596.1345211818492 311.1159329314081 Z" stroke-opacity="1" stroke-linecap="round" stroke-linejoin="round" stroke-miterlimit="10"/><text fill="rgb(128,128,128)" stroke="none" font-family="geogebra-sans-serif, sans-serif" font-size="16px" font-style="normal" font-weight="normal" text-decoration="normal" x="595" y="301" text-anchor="start" dominant-baseline="alphabetic" fill-opacity="1">X</text></g></g></svg>